<svg width="96" height="96" xmlns="http://www.w3.org/2000/svg" xmlns:xlink="http://www.w3.org/1999/xlink" xml:space="preserve" overflow="hidden"><g transform="translate(-780 -580)"><path d="M860 596.2C860 600.066 856.866 603.2 853 603.2 849.134 603.2 846 600.066 846 596.2 846 592.334 849.134 589.2 853 589.2 856.866 589.2 860 592.334 860 596.2Z"/><path d="M810 596.2C810 600.066 806.866 603.2 803 603.2 799.134 603.2 796 600.066 796 596.2 796 592.334 799.134 589.2 803 589.2 806.866 589.2 810 592.334 810 596.2Z"/><path d="M835 596.2C835 600.066 831.866 603.2 828 603.2 824.134 603.2 821 600.066 821 596.2 821 592.334 824.134 589.2 828 589.2 831.866 589.2 835 592.334 835 596.2Z"/><path d="M845.8 628.8 841.3 612.2C841.1 611.6 840.8 611 840.4 610.6 838.5 608.6 836.1 607.1 833.5 606.2 831.8 605.6 830 605.3 828.1 605.3 826.2 605.3 824.4 605.6 822.7 606.2 820 607.1 817.7 608.6 815.8 610.6 815.4 611.1 815.1 611.6 814.9 612.2L810.4 628.8C810 630.4 810.8 632.2 812.5 632.6 812.8 632.7 813 632.7 813.3 632.7 814.6 632.7 815.8 631.8 816.2 630.5L820.2 615.9 820.2 666.8 826.2 666.8 826.2 638.2 830.2 638.2 830.2 666.7 836.2 666.7 836.2 615.9 840.2 630.5C840.6 631.8 841.8 632.7 843.1 632.7 843.4 632.7 843.6 632.7 843.9 632.6 845.3 632.2 846.2 630.4 845.8 628.8Z"/><path d="M808.3 628.3 812.8 611.7C813 610.8 813.5 610 814 609.3 812.4 607.9 810.4 606.8 808.3 606.1 806.6 605.5 804.8 605.2 802.9 605.2 801 605.2 799.2 605.5 797.5 606.1 794.8 607 792.5 608.5 790.6 610.5 790.2 611 789.9 611.5 789.7 612.1L785.2 628.8C784.8 630.4 785.6 632.2 787.3 632.6 787.6 632.7 787.8 632.7 788.1 632.7 789.4 632.7 790.6 631.8 791 630.5L795 615.9 795 666.8 801 666.8 801 638.2 805 638.2 805 666.7 811 666.7 811 634.3C808.9 633.3 807.7 630.8 808.3 628.3Z"/><path d="M870.8 628.8 866.2 612.2C866 611.6 865.7 611 865.3 610.6 863.4 608.6 861 607.1 858.4 606.2 856.7 605.6 854.9 605.3 853 605.3 851.1 605.3 849.3 605.6 847.6 606.2 845.5 606.9 843.6 608 841.9 609.4 842.5 610.1 842.9 610.9 843.1 611.7L847.6 628.3C848.3 630.8 847 633.3 844.9 634.3L844.9 666.8 850.9 666.8 850.9 638.2 854.9 638.2 854.9 666.7 860.9 666.7 860.9 615.9 864.9 630.5C865.3 631.8 866.5 632.7 867.8 632.7 868.1 632.7 868.3 632.7 868.6 632.6 870.3 632.2 871.2 630.4 870.8 628.8Z"/></g></svg>
