<svg width="96" height="96" xmlns="http://www.w3.org/2000/svg" xmlns:xlink="http://www.w3.org/1999/xlink" xml:space="preserve" overflow="hidden"><g transform="translate(-1025 -562)"><path d="M1058 592.8C1058 597.771 1053.97 601.8 1049 601.8 1044.03 601.8 1040 597.771 1040 592.8 1040 587.829 1044.03 583.8 1049 583.8 1053.97 583.8 1058 587.829 1058 592.8Z"/><path d="M1106 592.8C1106 597.771 1101.97 601.8 1097 601.8 1092.03 601.8 1088 597.771 1088 592.8 1088 587.829 1092.03 583.8 1097 583.8 1101.97 583.8 1106 587.829 1106 592.8Z"/><path d="M1091 636.2 1091 627.2C1091 625.8 1090.4 624.4 1089.2 623.6 1086.8 621.6 1083.6 620.2 1080.4 619.4 1078.2 618.8 1075.6 618.2 1073 618.2 1070.6 618.2 1068 618.6 1065.6 619.4 1062.4 620.2 1059.4 621.8 1056.8 623.6 1055.6 624.6 1055 625.8 1055 627.2L1055 636.2 1091 636.2Z"/><path d="M1082 606.8C1082 611.771 1077.97 615.8 1073 615.8 1068.03 615.8 1064 611.771 1064 606.8 1064 601.829 1068.03 597.8 1073 597.8 1077.97 597.8 1082 601.829 1082 606.8Z"/><path d="M1113.2 609.6C1110.8 607.6 1107.6 606.2 1104.4 605.4 1102.2 604.8 1099.6 604.2 1097 604.2 1094.6 604.2 1092 604.6 1089.6 605.4 1088.4 605.8 1087.2 606.2 1086 606.8L1086 607C1086 610.4 1084.6 613.6 1082.4 615.8 1086.2 617 1089.2 618.6 1091.6 620.4 1092.2 621 1092.8 621.4 1093.2 622.2L1115 622.2 1115 613.2C1115 611.8 1114.4 610.4 1113.2 609.6Z"/><path d="M1054.4 620.4 1054.4 620.4C1057.2 618.4 1060.4 616.8 1063.6 615.8 1061.4 613.4 1060 610.4 1060 607 1060 606.8 1060 606.8 1060 606.6 1058.8 606.2 1057.6 605.6 1056.4 605.4 1054.2 604.8 1051.6 604.2 1049 604.2 1046.6 604.2 1044 604.6 1041.6 605.4 1038.4 606.4 1035.4 607.8 1032.8 609.6 1031.6 610.4 1031 611.8 1031 613.2L1031 622.2 1052.6 622.2C1053.2 621.4 1053.6 621 1054.4 620.4Z"/></g></svg>