<svg width="96" height="96" xmlns="http://www.w3.org/2000/svg" xmlns:xlink="http://www.w3.org/1999/xlink" xml:space="preserve" overflow="hidden"><g transform="translate(-621 0)"><path d="M675.6 29.4 674.4 9 676 9 676 8C676 6.2 674.8 4.7 673.2 4.2 673 4.1 672.8 4 672.5 4L672 4 666 4 665.5 4C665.2 4 665 4.1 664.8 4.2 663.2 4.7 662 6.2 662 8L662 9 663.6 9 662.4 29.4C658.6 31.4 656 35.4 656 40L656 88C656 90.2 661.8 92 669 92 676.2 92 682 90.2 682 88L682 40C682 35.4 679.4 31.4 675.6 29.4ZM678 86.7C676.6 87.3 673.4 88 669 88 664.6 88 661.4 87.3 660 86.7L660 70 662.9 70C664.4 73.1 666.6 75 669 75 671.4 75 673.7 73.1 675.1 70L678 70 678 86.7ZM678 52 675.1 52C673.6 48.9 671.4 47 669 47 666.6 47 664.3 48.9 662.9 52L660 52 660 40C660 37 661.6 34.3 664.3 32.9L666.3 31.8 666.4 29.5 667.2 16 670.8 16 671.6 29.6 671.7 31.9 673.7 33C676.4 34.3 678 37 678 40L678 52Z"/></g></svg>