<svg width="96" height="96" xmlns="http://www.w3.org/2000/svg" xmlns:xlink="http://www.w3.org/1999/xlink" xml:space="preserve" overflow="hidden"><g transform="translate(-1043 -361)"><path d="M1098 387.9C1098 391.8 1094.9 394.9 1091 394.9 1087.1 394.9 1084 391.8 1084 387.9 1084 384 1087.1 380.9 1091 380.9 1094.9 380.9 1098 384.1 1098 387.9"/><path d="M1126 391.9C1126 395.8 1122.9 398.9 1119 398.9 1115.1 398.9 1112 395.8 1112 391.9 1112 388 1115.1 384.9 1119 384.9 1122.9 384.9 1126 388 1126 391.9"/><path d="M1070 391.9C1070 395.8 1066.9 398.9 1063 398.9 1059.1 398.9 1056 395.8 1056 391.9 1056 388 1059.1 384.9 1063 384.9 1066.9 384.9 1070 388 1070 391.9"/><path d="M1051.6 437.1C1051.6 422.5 1069.2 410.7 1091 410.7 1112.7 410.7 1130.4 422.5 1130.4 437.1L1051.6 437.1Z"/><path d="M1060.6 414.4C1064.8 411.6 1069.7 409.4 1075 408L1075 406.9C1075 405.8 1074.5 404.7 1073.8 404 1073.5 403.7 1072.8 403.3 1071.9 402.9 1066.4 400.3 1059.9 400.3 1054.3 402.8 1053.3 403.2 1052.5 403.7 1052.1 404 1051.5 404.7 1051 405.8 1051 406.9L1051 423.9C1053.3 420.4 1056.5 417.1 1060.6 414.4"/><path d="M1103 407 1103 402.9C1103 401.8 1102.5 400.7 1101.8 400 1101.5 399.7 1100.8 399.3 1099.9 398.9 1094.4 396.3 1087.9 396.3 1082.3 398.8 1081.3 399.2 1080.5 399.7 1080.1 400 1079.3 400.7 1078.9 401.8 1078.9 402.9L1078.9 407C1082.8 406.2 1086.8 405.8 1090.9 405.8 1095 405.8 1099.1 406.3 1103 407"/><path d="M1131 423.9 1131 406.9C1131 405.8 1130.5 404.7 1129.8 404 1129.5 403.7 1128.8 403.3 1127.9 402.9 1122.4 400.3 1115.9 400.3 1110.3 402.8 1109.3 403.2 1108.5 403.7 1108.1 404 1107.3 404.7 1106.9 405.8 1106.9 406.9L1106.9 408C1112.2 409.4 1117.1 411.6 1121.3 414.4 1125.5 417.1 1128.7 420.4 1131 423.9"/></g></svg>