<svg width="96" height="96" xmlns="http://www.w3.org/2000/svg" xmlns:xlink="http://www.w3.org/1999/xlink" xml:space="preserve" overflow="hidden"><g transform="translate(-497 -164)"><path fill="#FFFFFF" d="M563 204.8 554.4 196.2 557.2 193.4 568.7 204.8 584 204.8C584 211.4 578.6 216.8 572 216.8L552.1 216.8C550.3 212.3 545.9 209.3 541 209.3 536.1 209.3 531.7 212.3 529.9 216.8L508 216.8 504 204.8 563 204.8Z"/><path fill="#FFFFFF" d="M553 220.8 587 220.8 587 224.8 552.5 224.8C552.8 223.7 553 222.5 553 221.3 553 221.1 553 220.9 553 220.8Z"/><path fill="#FFFFFF" d="M503 220.8 529 220.8C529 221 529 221.1 529 221.3 529 222.5 529.2 223.7 529.5 224.8L503 224.8 503 220.8Z"/><path fill="#FFFFFF" d="M538 221.2C538 219.5 539.3 218.2 541 218.2 542.7 218.2 544 219.5 544 221.2 544 222.9 542.7 224.2 541 224.2 539.3 224.2 538 222.9 538 221.2ZM533 221.2C533 225.6 536.6 229.2 541 229.2 545.4 229.2 549 225.6 549 221.2 549 216.8 545.4 213.2 541 213.2 536.6 213.2 533 216.8 533 221.2Z"/></g></svg>