<svg width="96" height="96" xmlns="http://www.w3.org/2000/svg" xmlns:xlink="http://www.w3.org/1999/xlink" xml:space="preserve" overflow="hidden"><g transform="translate(-654 -170)"><path d="M730.12 214.2C729.675 213.454 728.869 212.997 728 213L726.55 213 721.93 206C721.18 205.319 720.192 204.96 719.18 205L697.5 205 693.75 195 679.5 195 679.5 205 671.75 205C669.95 205 668.5 206 668.5 207.17L668.5 213 668 213C666.64 213.005 665.54 214.11 665.54 215.47L665.54 222 734.79 222ZM675.5 218C675.5 218.552 675.052 219 674.5 219L673.5 219C672.948 219 672.5 218.552 672.5 218L672.5 217C672.5 216.448 672.948 216 673.5 216L674.5 216C675.052 216 675.5 216.448 675.5 217ZM683.5 218C683.5 218.552 683.052 219 682.5 219L681.5 219C680.948 219 680.5 218.552 680.5 218L680.5 217C680.5 216.448 680.948 216 681.5 216L682.5 216C683.052 216 683.5 216.448 683.5 217ZM691.5 218C691.5 218.552 691.052 219 690.5 219L689.5 219C688.948 219 688.5 218.552 688.5 218L688.5 217C688.5 216.448 688.948 216 689.5 216L690.5 216C691.052 216 691.5 216.448 691.5 217ZM699.5 218C699.5 218.552 699.052 219 698.5 219L697.5 219C696.948 219 696.5 218.552 696.5 218L696.5 217C696.5 216.448 696.948 216 697.5 216L698.5 216C699.052 216 699.5 216.448 699.5 217ZM707.5 218C707.5 218.552 707.052 219 706.5 219L705.5 219C704.948 219 704.5 218.552 704.5 218L704.5 217C704.5 216.448 704.948 216 705.5 216L706.5 216C707.052 216 707.5 216.448 707.5 217ZM715.5 218C715.5 218.552 715.052 219 714.5 219L713.5 219C712.948 219 712.5 218.552 712.5 218L712.5 217C712.5 216.448 712.948 216 713.5 216L714.5 216C715.052 216 715.5 216.448 715.5 217ZM723.5 218C723.5 218.552 723.052 219 722.5 219L721.5 219C720.948 219 720.5 218.552 720.5 218L720.5 217C720.5 216.448 720.948 216 721.5 216L722.5 216C723.052 216 723.5 216.448 723.5 217Z"/><path d="M693 193 692 190.36C691.688 189.53 690.887 188.985 690 189L679.5 189 679.5 193Z"/><path d="M745.18 225 657.82 225C656.826 224.989 656.011 225.786 656 226.78 656 226.783 656 226.787 656 226.79L660 243.21C660.005 244.193 660.798 244.989 661.78 245L728.45 245C728.933 245.001 729.397 244.81 729.74 244.47L746.46 228.05C747.162 227.361 747.172 226.234 746.483 225.533 746.141 225.184 745.669 224.991 745.18 225ZM672.5 236.17C672.5 236.628 672.128 237 671.67 237L668.33 237C667.872 237 667.5 236.628 667.5 236.17L667.5 232.83C667.505 232.374 667.874 232.005 668.33 232L671.67 232C672.128 232 672.5 232.372 672.5 232.83ZM683.5 236.17C683.5 236.628 683.128 237 682.67 237L679.33 237C678.872 237 678.5 236.628 678.5 236.17L678.5 232.83C678.505 232.374 678.874 232.005 679.33 232L682.67 232C683.128 232 683.5 232.372 683.5 232.83ZM694.5 236.17C694.5 236.628 694.128 237 693.67 237L690.33 237C689.872 237 689.5 236.628 689.5 236.17L689.5 232.83C689.505 232.374 689.874 232.005 690.33 232L693.67 232C694.128 232 694.5 232.372 694.5 232.83ZM705.5 236.17C705.5 236.628 705.128 237 704.67 237L701.33 237C700.872 237 700.5 236.628 700.5 236.17L700.5 232.83C700.505 232.374 700.874 232.005 701.33 232L704.67 232C705.128 232 705.5 232.372 705.5 232.83ZM716.5 236.17C716.5 236.628 716.128 237 715.67 237L712.33 237C711.872 237 711.5 236.628 711.5 236.17L711.5 232.83C711.505 232.374 711.874 232.005 712.33 232L715.67 232C716.128 232 716.5 232.372 716.5 232.83ZM727.5 236.17C727.5 236.628 727.128 237 726.67 237L723.33 237C722.872 237 722.5 236.628 722.5 236.17L722.5 232.83C722.505 232.374 722.874 232.005 723.33 232L726.67 232C727.128 232 727.5 232.372 727.5 232.83Z"/></g></svg>