<svg width="96" height="96" xmlns="http://www.w3.org/2000/svg" xmlns:xlink="http://www.w3.org/1999/xlink" xml:space="preserve" overflow="hidden"><g transform="translate(-592 -312)"><path d="M606 377 610 377 610 381 606 381 606 377ZM606 369 610 369 610 373 606 373 606 369ZM606 361 610 361 610 365 606 365 606 361ZM614 377 618 377 618 381 614 381 614 377ZM614 369 618 369 618 373 614 373 614 369ZM614 361 618 361 618 365 614 365 614 361ZM600 391 610 391 610 385 614 385 614 391 624 391 624 355 600 355 600 391Z"/><path d="M634 377 638 377 638 381 634 381 634 377ZM634 369 638 369 638 373 634 373 634 369ZM642 377 646 377 646 381 642 381 642 377ZM642 369 646 369 646 373 642 373 642 369ZM628 391 638 391 638 385 642 385 642 391 652 391 652 363 628 363 628 391Z"/><path d="M674 342 670 342 670 338 674 338 674 342ZM674 349 670 349 670 345 674 345 674 349ZM674 357 670 357 670 353 674 353 674 357ZM674 365 670 365 670 361 674 361 674 365ZM674 373 670 373 670 369 674 369 674 373ZM674 381 670 381 670 377 674 377 674 381ZM666 342 662 342 662 338 666 338 666 342ZM666 349 662 349 662 345 666 345 666 349ZM666 357 662 357 662 353 666 353 666 357ZM666 365 662 365 662 361 666 361 666 365ZM666 373 662 373 662 369 666 369 666 373ZM666 381 662 381 662 377 666 377 666 381ZM656 331 656 391 666 391 666 385 670 385 670 391 680 391 680 334 656 331Z"/><path d="M628 343 632 343 632 347 628 347 628 343ZM628 335 632 335 632 339 628 339 628 335ZM624 339 620 339 620 335 624 335 624 339ZM624 347 620 347 620 343 624 343 624 347ZM628 359 638 359 638 329 614 329 614 351 628 351 628 359Z"/></g></svg>