<svg width="96" height="96" xmlns="http://www.w3.org/2000/svg" xmlns:xlink="http://www.w3.org/1999/xlink" xml:space="preserve" overflow="hidden"><g transform="translate(-946 -264)"><path fill="#FFFFFF" d="M1011 293 1005 293 1005 287 1011 287 1011 293ZM1011 309 1005 309 1005 303 1011 303 1011 309ZM1011 325 1005 325 1005 319 1011 319 1011 325ZM1011 341 1005 341 1005 335 1011 335 1011 341ZM997 293 991 293 991 287 997 287 997 293ZM997 309 991 309 991 303 997 303 997 309ZM997 325 991 325 991 319 997 319 997 325ZM997 347 991 347 991 335 997 335 997 347ZM983 293 977 293 977 287 983 287 983 293ZM983 309 977 309 977 303 983 303 983 309ZM983 325 977 325 977 319 983 319 983 325ZM983 341 977 341 977 335 983 335 983 341ZM1018 347 1018 280 1015 280 1015 274 1012 274 1012 270 976 270 976 274 973 274 973 280 970 280 970 347 966 347 966 354 1022 354 1022 347 1018 347Z"/></g></svg>