<svg width="96" height="96" xmlns="http://www.w3.org/2000/svg" xmlns:xlink="http://www.w3.org/1999/xlink" xml:space="preserve" overflow="hidden"><g transform="translate(-779 -154)"><path fill="#FFFFFF" d="M827 227C817 227 809 219 809 209 809 199 817 191 827 191 837 191 845 199 845 209 845 219 837 227 827 227ZM807 195 795 195 795 187 807 187 807 195ZM863 179 843 179 837 169 817 169 811 179 791 179C788.8 179 787 180.8 787 183L787 231C787 233.2 788.8 235 791 235L863 235C865.2 235 867 233.2 867 231L867 183C867 180.8 865.2 179 863 179Z"/><path fill="#FFFFFF" d="M827 199C821.4 199 817 203.4 817 209 817 214.6 821.4 219 827 219 832.6 219 837 214.6 837 209 837 203.4 832.6 199 827 199ZM827 223C819.2 223 813 216.8 813 209 813 201.2 819.2 195 827 195 834.8 195 841 201.2 841 209 841 216.8 834.8 223 827 223Z"/></g></svg>