<svg width="96" height="96" xmlns="http://www.w3.org/2000/svg" xmlns:xlink="http://www.w3.org/1999/xlink" xml:space="preserve" overflow="hidden"><g transform="translate(-55 -161)"><path d="M85.006 205C85.006 209.418 81.4243 213 77.006 213 72.5877 213 69.006 209.418 69.006 205 69.006 200.582 72.5877 197 77.006 197 81.4243 197 85.006 200.582 85.006 205Z"/><path d="M137.006 205C137.006 209.418 133.424 213 129.006 213 124.588 213 121.006 209.418 121.006 205 121.006 200.582 124.588 197 129.006 197 133.424 197 137.006 200.582 137.006 205Z"/><path d="M139.006 185 130.706 185C129.642 185.03 128.618 184.591 127.906 183.8L115.306 171.3C113.793 169.798 111.738 168.969 109.606 169L76.306 169C74.1776 168.988 72.13 169.814 70.606 171.3L58.206 183.8C57.4276 184.563 56.9942 185.61 57.006 186.7L57.006 197C57.0192 201.413 60.5932 204.987 65.006 205L66.006 205C66.006 198.925 70.9309 194 77.006 194 83.0811 194 88.006 198.925 88.006 205L118.006 205C118.006 198.925 122.931 194 129.006 194 135.081 194 140.006 198.925 140.006 205L145.006 205C147.212 204.993 148.999 203.206 149.006 201L149.006 195C148.99 189.484 144.522 185.016 139.006 185ZM88.006 185 62.706 185 73.506 174.2C74.2413 173.442 75.2497 173.009 76.306 173L88.006 173ZM92.006 185 92.006 173 109.706 173C110.77 172.97 111.794 173.409 112.506 174.2L123.306 185Z"/><path d="M108.006 212 118.006 212 118.006 208 88.006 208 88.006 212 98.006 212 98.006 245 57.006 245 57.006 249 149.006 249 149.006 245 108.006 245 108.006 212Z"/></g></svg>