<svg width="96" height="96" xmlns="http://www.w3.org/2000/svg" xmlns:xlink="http://www.w3.org/1999/xlink" xml:space="preserve" overflow="hidden"><g transform="translate(-193 -164)"><path fill="#FFFFFF" d="M262.59 180.718 264.674 177.107 271.9 177.107C269.943 172.749 264.824 170.802 260.466 172.759 258.791 173.511 257.398 174.777 256.49 176.373L225.313 176.373C222.918 172.24 217.626 170.83 213.492 173.225 211.936 174.127 210.7 175.491 209.955 177.128L217.164 177.107 219.216 180.718 217.132 184.328 209.9 184.328C211.856 188.686 216.975 190.634 221.334 188.677 223.009 187.925 224.402 186.659 225.31 185.063L256.49 185.063C258.886 189.196 264.18 190.605 268.313 188.208 269.868 187.307 271.104 185.944 271.848 184.308L264.622 184.308Z"/><path fill="#FFFFFF" d="M268.823 226.077C268.82 227.177 267.928 228.068 266.828 228.071L260.846 228.071C259.744 228.071 258.849 227.179 258.846 226.077L258.846 224.083C258.849 222.981 259.744 222.089 260.846 222.089L266.828 222.089C267.928 222.092 268.82 222.983 268.823 224.083L268.823 226.077ZM217.271 216.106 223.054 202.345C223.361 201.622 224.068 201.15 224.854 201.145L256.757 201.145C257.543 201.15 258.25 201.622 258.557 202.345L264.54 216.106ZM222.954 226.077C222.951 227.177 222.06 228.068 220.96 228.071L214.977 228.071C213.877 228.068 212.986 227.177 212.983 226.077L212.983 224.083C212.986 222.983 213.877 222.092 214.977 222.089L220.96 222.089C222.06 222.092 222.951 222.983 222.954 224.083L222.954 226.077ZM224.954 197.16C222.538 197.135 220.357 198.603 219.469 200.85L212.983 216.106C209.683 216.115 207.009 218.789 207 222.089L207 238.043C207.007 240.243 208.789 242.025 210.989 242.031L212.983 242.031 212.983 249.011C212.989 251.211 214.771 252.993 216.971 253L218.971 253C221.171 252.993 222.953 251.211 222.959 249.011L222.959 242.031 258.859 242.031 258.859 249.011C258.865 251.208 260.643 252.99 262.84 253L264.834 253C267.035 252.994 268.817 251.212 268.823 249.011L268.823 242.031 270.817 242.031C273.017 242.025 274.799 240.243 274.806 238.043L274.806 222.089C274.797 218.789 272.123 216.115 268.823 216.106L268.823 216.106 262.341 200.85C261.454 198.603 259.273 197.135 256.857 197.16Z"/></g></svg>