<svg width="96" height="96" xmlns="http://www.w3.org/2000/svg" xmlns:xlink="http://www.w3.org/1999/xlink" xml:space="preserve" overflow="hidden"><g transform="translate(-353 -171)"><path d="M385 233C385 237.418 381.418 241 377 241 372.582 241 369 237.418 369 233 369 228.582 372.582 225 377 225 381.418 225 385 228.582 385 233Z"/><path d="M433 233C433 237.418 429.418 241 425 241 420.582 241 417 237.418 417 233 417 228.582 420.582 225 425 225 429.418 225 433 228.582 433 233Z"/><path d="M392 213 392 201 405.7 201C406.8 201 407.8 201.4 408.5 202.2L419.3 213 392 213ZM388 213 362.7 213 373.5 202.2C374.3 201.4 375.3 201 376.3 201L388 201 388 213ZM435 213 426.7 213C425.6 213 424.6 212.6 423.9 211.8L411.3 199.3C409.8 197.8 407.8 197 405.6 197L376.3 197C374.2 197 372.1 197.8 370.6 199.3L358.2 211.8C357.4 212.6 357 213.6 357 214.7L357 225C357 229.4 360.6 233 365 233L366 233C366 226.9 370.9 222 377 222 383.1 222 388 226.9 388 233L414 233C414 226.9 418.9 222 425 222 431.1 222 436 226.9 436 233L441 233C443.2 233 445 231.2 445 229L445 223C445 217.5 440.5 213 435 213Z"/></g></svg>