<svg width="96" height="96" xmlns="http://www.w3.org/2000/svg" xmlns:xlink="http://www.w3.org/1999/xlink" xml:space="preserve" overflow="hidden"><g transform="translate(-193 -33)"><path fill="#FFFFFF" d="M279 104 276 107 207 107 203 103 203 83 207 79 276 79 279 82 279 104ZM197 73 197 113 285 113 285 73 197 73Z"/><path fill="#FFFFFF" d="M249 93C249 98.5229 245.418 103 241 103 236.582 103 233 98.5229 233 93 233 87.4772 236.582 83 241 83 245.418 83 249 87.4772 249 93Z"/><path fill="#FFFFFF" d="M219 93C219 94.6569 217.657 96 216 96 214.343 96 213 94.6569 213 93 213 91.3431 214.343 90 216 90 217.657 90 219 91.3431 219 93Z"/><path fill="#FFFFFF" d="M269 93C269 94.6569 267.657 96 266 96 264.343 96 263 94.6569 263 93 263 91.3431 264.343 90 266 90 267.657 90 269 91.3431 269 93Z"/><path fill="#FFFFFF" d="M258.9 53.7 260.4 57.5 266.4 56.3 262.2 45.8 208.4 67.8 239.2 61.7Z"/><path fill="#FFFFFF" d="M253.7 69 269.5 65.9 270.2 69 276.3 69 274.3 58.8 223 69Z"/></g></svg>