<svg width="96" height="96" xmlns="http://www.w3.org/2000/svg" xmlns:xlink="http://www.w3.org/1999/xlink" xml:space="preserve" overflow="hidden"><g transform="translate(-552 -10)"><path d="M610.2 36 604.2 42 581.7 42 575.7 36 610.2 36ZM615.8 36 624.3 36 618.3 42 609.8 42 615.8 36ZM600 52C598.3 52 597 50.7 597 49 597 47.3 598.3 46 600 46 601.7 46 603 47.3 603 49 603 50.7 601.7 52 600 52ZM633.1 32.9C633.4 32.6 633.2 32 632.7 32L619.7 32 624.3 27.4C625.1 26.6 625.1 25.4 624.3 24.6 623.5 23.8 622.3 23.8 621.5 24.6L614.2 32 567.2 32C566.8 32 566.5 32.5 566.8 32.9L598 64 598 84C598 85 596.7 85.8 595.1 86.3 593.6 86.5 592.2 86.7 591.1 87L591 87C589.1 87.5 588 88.2 588 89 588 90.7 593.4 92 600 92 606.6 92 612 90.7 612 89 612 88.2 610.8 87.5 609 87 607.8 86.7 606.5 86.4 604.9 86.3 603.3 85.8 602 85 602 84L602 64 633.1 32.9Z"/></g></svg>