<svg width="96" height="96" xmlns="http://www.w3.org/2000/svg" xmlns:xlink="http://www.w3.org/1999/xlink" xml:space="preserve" overflow="hidden"><g transform="translate(-785 -171)"><path fill="#FFFFFF" d="M841 229 793 229 793 197 841 197 841 229ZM843 191 791 191C788.8 191 787 192.8 787 195L787 231C787 233.2 788.8 235 791 235L811 235 811 241 802 241 802 247 832 247 832 241 823 241 823 235 843 235C845.2 235 847 233.2 847 231L847 195C847 192.8 845.2 191 843 191Z"/><path fill="#FFFFFF" d="M875 201 855 201 855 195 875 195 875 201ZM875 211 855 211 855 205 875 205 875 211ZM865 241C863.3 241 862 239.7 862 238 862 236.3 863.3 235 865 235 866.7 235 868 236.3 868 238 868 239.7 866.7 241 865 241ZM875 191 855 191C852.8 191 851 192.8 851 195L851 243C851 245.2 852.8 247 855 247L875 247C877.2 247 879 245.2 879 243L879 195C879 192.8 877.2 191 875 191Z"/></g></svg>