<svg width="96" height="96" xmlns="http://www.w3.org/2000/svg" xmlns:xlink="http://www.w3.org/1999/xlink" xml:space="preserve" overflow="hidden"><g transform="translate(-174 -455)"><path d="M197 469 247 469 247 537 197 537 197 469ZM191 543 253 543 253 463 191 463 191 543Z" fill="#FFFFFF"/><path d="M223 521 241 521 241 525 223 525Z" fill="#FFFFFF"/><path d="M203 477 241 477 241 481 203 481Z" fill="#FFFFFF"/><path d="M203 485 241 485 241 489 203 489Z" fill="#FFFFFF"/><path d="M203 493 241 493 241 497 203 497Z" fill="#FFFFFF"/><path d="M203 501 222 501 222 505 203 505Z" fill="#FFFFFF"/><path d="M206.1 530 210 526.1 213.9 530 217 526.9 213.1 523 217 519.1 213.9 516 210 519.9 206.1 516 203 519.1 206.9 523 203 526.9Z" fill="#FFFFFF"/></g></svg>