<svg width="96" height="96" xmlns="http://www.w3.org/2000/svg" xmlns:xlink="http://www.w3.org/1999/xlink" xml:space="preserve" overflow="hidden"><g transform="translate(-1093 -228)"><path fill="#FFFFFF" d="M1177.2 270 1168.7 270C1166.4 272.2 1164.9 275.9 1164.9 279.1 1164.9 284 1168.5 288 1172.9 288 1177.3 288 1180.9 284 1180.9 279.1 1181 275.9 1179.5 272.2 1177.2 270Z"/><path fill="#FFFFFF" d="M1171 258 1175 258 1176.3 255.4C1176.6 254.7 1176.1 254 1175.4 254L1170.6 254C1169.9 254 1169.4 254.8 1169.7 255.4L1171 258Z"/><path fill="#FFFFFF" d="M1178 264C1178 261.8 1176.2 260 1174 260L1165.2 260 1150.3 250.6C1149.7 250.2 1149 250 1148.2 250L1131.2 250C1129.7 250 1128.4 250.8 1127.7 252.1L1121.2 264.1C1120.1 266 1120.9 268.5 1122.8 269.5 1123.4 269.8 1124.1 270 1124.7 270 1126.1 270 1127.5 269.2 1128.2 267.9L1133.6 258 1139.5 258 1121.8 291 1105.2 291C1103 291 1101.2 292.8 1101.2 295 1101.2 297.2 1103 299 1105.2 299L1124.2 299C1125.7 299 1127 298.2 1127.7 296.9L1134.6 284.1 1148 298.3 1145.3 314.3C1144.9 316.5 1146.4 318.5 1148.6 318.9 1148.8 318.9 1149 319 1149.3 319 1151.2 319 1152.9 317.6 1153.2 315.7L1156.2 297.7C1156.4 296.5 1156 295.2 1155.2 294.3L1143.1 281.4 1153.5 262 1161.9 267.3C1162.5 267.7 1163.3 267.9 1164 267.9L1174 267.9C1176.2 268 1178 266.2 1178 264Z"/><path fill="#FFFFFF" d="M1163.2 241C1163.2 245.418 1159.62 249 1155.2 249 1150.78 249 1147.2 245.418 1147.2 241 1147.2 236.582 1150.78 233 1155.2 233 1159.62 233 1163.2 236.582 1163.2 241Z"/></g></svg>