<svg width="96" height="96" xmlns="http://www.w3.org/2000/svg" xmlns:xlink="http://www.w3.org/1999/xlink" xml:space="preserve" overflow="hidden"><g transform="translate(-1088 -502)"><path d="M1136 564C1128.3 564 1122 557.7 1122 550 1122 542.3 1128.3 536 1136 536 1143.7 536 1150 542.3 1150 550 1150 557.7 1143.7 564 1136 564ZM1136 512C1115 512 1098 529 1098 550 1098 571 1115 588 1136 588 1157 588 1174 571 1174 550 1174 529 1157 512 1136 512Z" fill="#FFFFFF"/><path d="M1136 554C1133.8 554 1132 552.2 1132 550 1132 547.8 1133.8 546 1136 546 1138.2 546 1140 547.8 1140 550 1140 552.2 1138.2 554 1136 554ZM1136 540C1130.5 540 1126 544.5 1126 550 1126 555.5 1130.5 560 1136 560 1141.5 560 1146 555.5 1146 550 1146 544.5 1141.5 540 1136 540Z" fill="#FFFFFF"/></g></svg>