<svg width="96" height="96" xmlns="http://www.w3.org/2000/svg" xmlns:xlink="http://www.w3.org/1999/xlink" xml:space="preserve" overflow="hidden"><g transform="translate(-292 -410)"><path d="M377.8 437.2C377 433.7 373.8 431 370 431L364.5 431 363.4 437.4C363.3 438 363.3 438.7 363.6 439.3 364 440.2 364.9 440.8 365.8 441 366.8 441.2 367.8 440.9 368.5 440.1 368.9 439.6 369.2 439 369.3 438.4L370 434.6C370.1 434.1 370.6 433.7 371.2 433.8 371.7 433.9 372.1 434.4 372 435L371.4 438.7C371.2 440.1 370.4 441.4 369.2 442.2 368.4 442.8 367.4 443 366.4 443 366.1 443 365.8 443 365.5 442.9 364 442.6 362.8 441.8 362 440.5 361.4 439.4 361.2 438.2 361.4 437L362.3 431.7 355.3 439.4C353.9 441 351.7 442 349.5 442L321 442C318.4 442 316 443 314.2 444.7 310.8 444.1 305.1 442.3 301.7 436.6 300.9 435.2 299.1 434.6 297.7 435.3 296.1 436.1 295.6 438 296.5 439.5 300.5 446.3 306.7 449 311.3 450.2 311.1 450.8 311 451.4 311 452L311 481.9C311 483.4 312 484.7 313.4 485 315.3 485.4 317 483.9 317 482.1L317 463 330.6 463C332.7 464.8 336.5 466 341 466 341 466 342.7 466 345 466L345 481.8C345 483.4 346.2 484.9 347.8 485 349.5 485.1 351 483.7 351 482L351 466 355 466 355 481.9C355 483.4 356 484.7 357.4 485 359.3 485.4 361 483.9 361 482.1L361 463.5C363.4 460.5 365 456 365 456L369 446 378 446C381.3 446 384 443.3 384 440L377.8 437.2Z"/><path d="M321 481C321 482.7 322.3 484 324 484 325.7 484 327 482.7 327 481L327 464 321 464 321 481Z"/></g></svg>