<svg width="96" height="96" xmlns="http://www.w3.org/2000/svg" xmlns:xlink="http://www.w3.org/1999/xlink" xml:space="preserve" overflow="hidden"><g transform="translate(-1099 -200)"><path fill="#FFFFFF" d="M1164.04 256.663C1163.42 255.189 1162.52 253.85 1161.39 252.722 1160.26 251.619 1158.97 250.688 1157.57 249.959 1156.12 249.198 1154.62 248.535 1153.08 247.972 1151.52 247.397 1149.91 246.859 1148.28 246.372 1148.16 246.334 1148.04 246.291 1147.91 246.252L1147.91 218.037C1148.13 218.031 1148.34 218.011 1148.57 218.011 1151.15 217.963 1153.71 218.428 1156.11 219.381 1158.43 220.406 1160.52 221.897 1162.25 223.761L1163.69 222.377C1161.78 220.314 1159.46 218.667 1156.88 217.537 1154.24 216.481 1151.41 215.962 1148.57 216.011 1148.34 216.011 1148.13 216.031 1147.91 216.037L1147.91 205.011 1145.91 205.011 1145.91 216.172C1144.27 216.336 1142.65 216.719 1141.11 217.31 1139.05 218.1 1137.17 219.293 1135.57 220.818 1134.09 222.264 1132.92 224 1132.14 225.918 1131.37 227.829 1130.97 229.873 1130.97 231.936 1130.93 233.855 1131.26 235.764 1131.95 237.559 1132.55 239.095 1133.45 240.5 1134.58 241.7 1135.7 242.857 1136.99 243.837 1138.4 244.606 1139.85 245.396 1141.35 246.084 1142.9 246.663 1143.88 247.032 1144.89 247.379 1145.91 247.714L1145.91 278.006C1144.32 278.015 1142.73 277.842 1141.18 277.491 1139.87 277.184 1138.59 276.738 1137.37 276.159 1136.38 275.688 1135.44 275.114 1134.56 274.447 1133.86 273.901 1133.18 273.318 1132.54 272.7 1131.97 272.145 1131.52 271.69 1131.19 271.334 1130.91 271.034 1130.73 270.834 1130.6 270.705L1130.52 270.623 1129.07 272 1129.15 272.086C1129.28 272.214 1129.45 272.398 1129.72 272.686 1130.06 273.063 1130.54 273.544 1131.14 274.129 1131.83 274.799 1132.56 275.431 1133.33 276.022 1134.31 276.777 1135.37 277.427 1136.49 277.959 1137.84 278.6 1139.26 279.095 1140.71 279.436 1142.42 279.825 1144.16 280.017 1145.91 280.008L1145.91 291.008 1147.91 291.008 1147.91 279.936C1150.02 279.813 1152.1 279.353 1154.06 278.575 1156.29 277.688 1158.31 276.368 1160.01 274.691 1161.64 273.063 1162.91 271.116 1163.75 268.971 1164.61 266.769 1165.04 264.425 1165.03 262.062 1165.07 260.215 1164.73 258.378 1164.04 256.663ZM1143.61 244.792C1142.15 244.246 1140.73 243.598 1139.37 242.853 1138.13 242.182 1137.01 241.326 1136.03 240.314 1135.07 239.3 1134.31 238.112 1133.8 236.814 1133.21 235.258 1132.93 233.605 1132.97 231.943 1132.97 230.138 1133.31 228.35 1133.99 226.678 1134.67 225.013 1135.68 223.506 1136.97 222.252 1138.38 220.912 1140.03 219.865 1141.85 219.173 1143.15 218.674 1144.52 218.344 1145.91 218.19L1145.91 245.615C1145.13 245.351 1144.36 245.076 1143.61 244.792ZM1161.89 268.239C1161.15 270.127 1160.03 271.843 1158.6 273.277 1157.08 274.767 1155.28 275.939 1153.3 276.725 1151.58 277.408 1149.76 277.817 1147.91 277.937L1147.91 248.351C1149.42 248.81 1150.93 249.312 1152.39 249.851 1153.85 250.383 1155.27 251.011 1156.64 251.73 1157.87 252.368 1158.99 253.182 1159.98 254.148 1160.93 255.093 1161.68 256.214 1162.2 257.448 1162.78 258.916 1163.06 260.485 1163.02 262.062 1163.03 264.174 1162.65 266.27 1161.89 268.239Z"/></g></svg>