<svg width="96" height="96" xmlns="http://www.w3.org/2000/svg" xmlns:xlink="http://www.w3.org/1999/xlink" xml:space="preserve" overflow="hidden"><g transform="translate(-181 -78)"><path d="M243.93 128C240.55 125.12 236.16 123.77 232 122.47L232 98.29C236.039 98.6738 239.814 100.469 242.66 103.36L247.46 98.76C243.352 94.5813 237.848 92.064 232 91.69L232 83 226 83 226 92.07C223.945 92.4699 221.963 93.1779 220.12 94.17 212.54 98.3 208.67 108 211.78 116.17 214.19 122.47 220 125.28 226 127.39L226 153.57C221.35 153 217.49 150.33 214.29 147L209.49 151.59C211.775 154.183 214.501 156.353 217.54 158 220.197 159.264 223.066 160.02 226 160.23L226 169 232 169 232 160C238.88 158.85 245.2 154.62 247.92 148 250.64 141.38 249.65 132.89 243.93 128ZM221 117.73C215.5 113.09 216.84 104.11 222.67 100.39 223.703 99.7273 224.824 99.2123 226 98.86L226 120.55C224.189 119.891 222.5 118.939 221 117.73ZM239.09 149.55C237.138 151.458 234.676 152.76 232 153.3L232 129.41C236 130.78 240.59 132.52 242.22 136.78 243.85 141.04 242.21 146.37 239.09 149.55Z" fill="#FFFFFF"/></g></svg>