<svg width="96" height="96" xmlns="http://www.w3.org/2000/svg" xmlns:xlink="http://www.w3.org/1999/xlink" xml:space="preserve" overflow="hidden"><g transform="translate(-340 -39)"><path fill="#FFFFFF" d="M430 64 417 64 417 63C417 61.8954 416.105 61 415 61 413.895 61 413 61.8954 413 63L413 64 400 64C398.895 64 398 64.8954 398 66 398 67.1046 398.895 68 400 68L413 68 413 71 412 71C411.448 71 411 71.4477 411 72L411 74.193 406.631 73.493C394.289 71.506 381.71 71.506 369.368 73.493L365 74.193 365 72C365 71.4477 364.552 71 364 71L363 71 363 68 376 68C377.105 68 378 67.1046 378 66 378 64.8954 377.105 64 376 64L363 64 363 63C363 61.8954 362.105 61 361 61 359.895 61 359 61.8954 359 63L359 64 346 64C344.895 64 344 64.8954 344 66 344 67.1046 344.895 68 346 68L359 68 359 71 358 71C357.448 71 357 71.4477 357 72L357 75.48 354.812 75.833C353.004 76.107 351.76 77.7947 352.034 79.6027 352.257 81.0714 353.431 82.2122 354.905 82.393L360.966 83.193C363.91 83.5831 366.809 84.2634 369.619 85.224L370.855 85.647C372.007 86.041 373.14 86.4813 374.255 86.968L368 102.615 368 113 372 113 372 103.385 377.861 88.732 378.261 88.943C379.563 89.6369 381.016 89.9999 382.492 90L385 90 385 95 382 95C380.895 95 380 95.8954 380 97L380 105C380 106.105 380.895 107 382 107L394 107C395.105 107 396 106.105 396 105L396 97C396 95.8954 395.105 95 394 95L391 95 391 90 393.507 90C394.984 90.0005 396.439 89.6375 397.742 88.943L398.142 88.731 404 103.385 404 113 408 113 408 102.615 401.742 86.97C402.857 86.4853 403.991 86.0453 405.142 85.65L406.378 85.227C409.189 84.2675 412.089 83.5886 415.034 83.2L421.094 82.4C422.909 82.1774 424.2 80.5256 423.977 78.7106 423.797 77.2361 422.656 76.0626 421.187 75.84L419 75.48 419 72C419 71.4477 418.552 71 418 71L417 71 417 68 430 68C431.105 68 432 67.1046 432 66 432 64.8954 431.105 64 430 64ZM388 103.5C386.619 103.5 385.5 102.381 385.5 101 385.5 99.6193 386.619 98.5 388 98.5 389.381 98.5 390.5 99.6193 390.5 101 390.5 102.381 389.381 103.5 388 103.5Z"/></g></svg>