<svg width="96" height="96" xmlns="http://www.w3.org/2000/svg" xmlns:xlink="http://www.w3.org/1999/xlink" xml:space="preserve" overflow="hidden"><g transform="translate(-173 -296)"><path d="M214 362C214 365.59 211.09 368.5 207.5 368.5 203.91 368.5 201 365.59 201 362 201 358.41 203.91 355.5 207.5 355.5 211.09 355.5 214 358.41 214 362Z"/><path d="M254 362C254 365.59 251.09 368.5 247.5 368.5 243.91 368.5 241 365.59 241 362 241 358.41 243.91 355.5 247.5 355.5 251.09 355.5 254 358.41 254 362Z"/><path d="M256.09 345 249.09 345C248.199 345.02 247.343 344.655 246.74 344L236.16 333.43C234.938 332.031 233.221 331.16 231.37 331L206.73 331C204.884 331.177 203.173 332.045 201.94 333.43L191.51 344C190.861 344.641 190.5 345.518 190.51 346.43L190.51 352 185.51 352C184.682 352.005 184.006 351.338 184 350.51 184 350.507 184 350.503 184 350.5L184 333.19C186.433 332.33 188.044 330.01 188 327.43L188 324 186 324 186 320C186 319.448 185.552 319 185 319 184.448 319 184 319.448 184 320L184 324 181 324 181 320C181 319.448 180.552 319 180 319 179.448 319 179 319.448 179 320L179 324 177 324 177 327.43C176.956 330.01 178.567 332.33 181 333.19L181 350.5C181.005 352.983 183.017 354.995 185.5 355L190.5 355 190.5 355C190.511 358.711 193.519 361.715 197.23 361.72L198.07 361.72C198.053 356.628 202.168 352.487 207.26 352.47 207.28 352.47 207.3 352.47 207.32 352.47 212.499 352.563 216.631 356.82 216.57 362L238.43 362C238.396 356.84 242.521 352.613 247.68 352.52 252.772 352.503 256.913 356.618 256.93 361.71 256.93 361.73 256.93 361.75 256.93 361.77L261.14 361.77C262.993 361.764 264.495 360.263 264.5 358.41L264.5 353.41C264.511 348.776 260.764 345.011 256.13 345 256.117 345 256.103 345 256.09 345ZM217 345 195.29 345 204.38 335.87C205.114 335.263 206.049 334.952 207 335L217 335ZM220 345 220 335 231.45 335C232.326 334.93 233.189 335.248 233.81 335.87L242.89 345Z"/></g></svg>