<svg width="96" height="96" xmlns="http://www.w3.org/2000/svg" xmlns:xlink="http://www.w3.org/1999/xlink" xml:space="preserve" overflow="hidden"><g transform="translate(-1143 -298)"><path d="M1177 322 1183 322 1183 337 1177 337Z" fill="#FFFFFF"/><path d="M1209 341 1173 341 1173 318 1209 318 1209 341ZM1191 367C1185.5 367 1181 362.5 1181 357 1181 351.5 1185.5 347 1191 347 1196.5 347 1201 351.5 1201 357 1201 362.5 1196.5 367 1191 367ZM1221 312 1209 312 1173 312 1167 312 1157 322 1157 376C1157 378.2 1158.8 380 1161 380L1221 380C1223.2 380 1225 378.2 1225 376L1225 316C1225 313.8 1223.2 312 1221 312Z" fill="#FFFFFF"/><path d="M1188 354 1194 354 1194 360 1188 360Z" fill="#FFFFFF"/></g></svg>