<svg width="96" height="96" xmlns="http://www.w3.org/2000/svg" xmlns:xlink="http://www.w3.org/1999/xlink" xml:space="preserve" overflow="hidden"><g transform="translate(-664 -606)"><path fill="#FFFFFF" d="M722.049 611.755C721.535 611.553 720.954 611.806 720.753 612.32 720.551 612.835 720.804 613.415 721.318 613.617 740.086 620.973 749.338 642.151 741.982 660.919 734.625 679.688 713.447 688.939 694.679 681.583 694.165 681.381 693.584 681.634 693.383 682.148 693.181 682.663 693.434 683.243 693.948 683.445 698.112 685.078 702.529 685.97 707 686.08L707 693.1 694.5 693.1C692.291 693.1 690.5 694.891 690.5 697.1L692.5 697.1C692.5 695.995 693.395 695.1 694.5 695.1L721.5 695.1C722.605 695.1 723.5 695.995 723.5 697.1L725.5 697.1C725.5 694.891 723.709 693.1 721.5 693.1L709 693.1 709 686.062C730.247 685.52 747.032 667.857 746.491 646.61 746.096 631.133 736.466 617.399 722.049 611.755Z"/><path fill="#FFFFFF" d="M683.5 698.1 732.5 698.1 732.5 700.1 683.5 700.1Z"/><path fill="#FFFFFF" d="M695.631 677.654C712.23 684.485 731.223 676.567 738.054 659.968 744.885 643.369 736.966 624.376 720.368 617.545 703.769 610.714 684.776 618.632 677.945 635.231 671.058 651.695 678.822 670.625 695.286 677.512 695.401 677.56 695.516 677.607 695.631 677.654ZM709.305 647.054 720.165 620.667C725.41 629.677 726.115 641.519 721.994 652.276ZM721.233 654.126C716.588 664.666 707.752 672.581 697.685 675.29L708.544 648.905ZM707.456 646.3 694.767 641.072C699.412 630.532 708.248 622.617 718.315 619.908ZM706.7 648.144 695.835 674.531C690.59 665.521 689.885 653.679 694.006 642.922ZM699.42 676.868C709.571 673.708 718.386 665.574 723.082 654.889L735.8 660.123C729.537 673.987 714.025 681.127 699.42 676.868ZM736.562 658.274 723.843 653.039C728.03 642.139 727.493 630.162 722.507 620.772 735.879 628.027 741.872 644.018 736.562 658.274ZM708.039 617.1C710.929 617.101 713.805 617.516 716.577 618.333 706.427 621.494 697.613 629.627 692.918 640.311L680.211 635.082C685.147 624.14 696.035 617.104 708.039 617.1ZM679.439 636.926 692.158 642.161C687.971 653.056 688.508 665.038 693.494 674.428 680.122 667.173 674.129 651.183 679.438 636.926Z"/></g></svg>