<svg width="96" height="96" xmlns="http://www.w3.org/2000/svg" xmlns:xlink="http://www.w3.org/1999/xlink" xml:space="preserve" overflow="hidden"><g transform="translate(-662 -132)"><path d="M741 207 741 205 738 205 738 171 741 171 741 169 744 169 744 163 741 163 710 144 679 163 676 163 676 169 679 169 679 171 682 171 682 205 679 205 679 207 672 212 672 216 748 216 748 212 741 207ZM698 205 690 205 690 171 698 171 698 205ZM714 205 706 205 706 171 714 171 714 205ZM730 205 722 205 722 171 730 171 730 205Z" fill="#FFFFFF"/></g></svg>