<svg width="96" height="96" xmlns="http://www.w3.org/2000/svg" xmlns:xlink="http://www.w3.org/1999/xlink" xml:space="preserve" overflow="hidden"><g transform="translate(-1133 -477)"><path fill="#FFFFFF" d="M1153 491 1147 491 1147 559 1215 559 1215 553 1153 553 1153 491Z"/><path fill="#FFFFFF" d="M1195 534.954C1192.65 534.954 1188.21 527.708 1185.86 520.044 1183.97 513.88 1178.66 499.544 1170.26 499.544 1162.74 499.544 1159.06 510.874 1157.3 520.378L1163.2 521.472C1165.35 509.872 1168.67 505.544 1170.26 505.544 1172.61 505.544 1177.04 511.761 1180.12 521.805 1180.72 523.765 1186.25 540.955 1195 540.955 1201.1 540.955 1205.6 534.334 1208.37 521.294L1214.95 523 1207.9 511 1195.9 518.056 1202.56 519.785C1200.36 530.259 1197.18 534.954 1195 534.954Z"/></g></svg>