<svg width="96" height="96" xmlns="http://www.w3.org/2000/svg" xmlns:xlink="http://www.w3.org/1999/xlink" xml:space="preserve" overflow="hidden"><g transform="translate(-1025 -477)"><path fill="#FFFFFF" d="M1101 553 1039 553 1039 559 1107 559 1107 491 1101 491Z"/><path fill="#FFFFFF" d="M1051.4 519.8 1058.1 518.1 1046.1 511 1039 523 1045.6 521.3C1048.4 534.3 1052.9 541 1059 541 1067.7 541 1073.3 523.8 1073.9 521.8 1077 511.8 1081.4 505.5 1083.8 505.5 1085.4 505.5 1088.7 509.8 1090.9 521.4L1096.8 520.3C1095 510.8 1091.4 499.5 1083.8 499.5 1075.3 499.5 1070 513.9 1068.1 520 1065.8 527.7 1061.3 535 1059 535 1056.8 535 1053.6 530.3 1051.4 519.8Z"/></g></svg>