<svg width="96" height="96" xmlns="http://www.w3.org/2000/svg" xmlns:xlink="http://www.w3.org/1999/xlink" xml:space="preserve" overflow="hidden"><g transform="translate(-488 -39)"><path fill="#FFFFFF" d="M569 74.7C568.9 74.7 568.9 74.7 568.9 74.8 568.9 74.8 568.9 74.9 568.9 74.9 569.6 75.5 571 77 571.5 80.4 571.8 82.1 574.1 82.4 575.3 81.2 576.6 79.9 575.9 77.8 574.6 76.6 573.5 75.6 570.3 75 569 74.7Z"/><path fill="#FFFFFF" d="M569.4 67.3C570.6 66.9 573.8 66 574.8 64.8 575.9 63.5 576.4 61.4 575 60.2 573.7 59.1 571.4 59.7 571.3 61.4 571.1 64.8 569.9 66.5 569.3 67.1 569.3 67.1 569.3 67.2 569.3 67.3 569.3 67.3 569.3 67.3 569.4 67.3Z"/><path fill="#FFFFFF" d="M577.3 67.2C575.3 67.2 570 70.9 570 70.9 570 70.9 575.3 74.6 577.3 74.6 579.3 74.6 581 73 581 71 581 69 579.4 67.3 577.4 67.3 577.4 67.2 577.4 67.2 577.3 67.2Z"/><path fill="#FFFFFF" d="M558.1 64.5C558.1 62.9 557.1 61.5 555.6 61.1 555.2 61 554.9 60.9 554.4 60.8 554 60.7 553.6 60.6 553.2 60.5L547.3 59.5C531.5 57.1 515.5 57.7 499.9 61.2L499.9 61.2C497.8 61.7 496.2 63.1 495.3 65.1L492.7 71.4C492.1 72.8 492 74.4 492.4 75.9 492.8 77.3 493.7 78.6 494.9 79.6L495.2 79.8C497.9 81.9 499 85.5 498.1 88.8L491.7 112.3C491.2 114.3 492.3 116.3 494.3 116.8 494.6 116.9 494.9 116.9 495.3 116.9L512.8 116.9C514.5 116.9 515.9 115.5 515.9 113.8 515.9 113.1 515.7 112.5 515.3 111.9L515.2 111.8C514.5 110.9 514.3 109.7 514.6 108.6L516.6 101.8 534.2 101.8C537.9 101.8 541.2 99.5 542.6 96.1L548.6 80.8 553 80.8C553.2 80.8 553.4 80.8 553.7 80.8 555.9 80.7 557.7 78.9 557.8 76.7L558.1 64.5ZM537 94.1C536.6 95.3 535.4 96 534.2 96L518.4 96 520.2 90.1 528.7 90.1C529 91.2 529.6 92.2 530.4 93.1 531 93.7 531.9 93.7 532.5 93.1 533.1 92.5 533.1 91.6 532.5 91 531.2 89.7 531.1 87.5 532.3 86.1 532.8 85.5 532.8 84.5 532.2 84 531.6 83.5 530.6 83.5 530.1 84.1 529.3 85 528.8 86 528.6 87.2L521.1 87.2 522.9 81.1 542.1 81.1 537 94.1Z"/><path fill="#FFFFFF" d="M562 65 561.1 65 560.7 77 562 77C564.2 77 566 75.2 566 73L566 69C566 66.8 564.2 65 562 65Z"/></g></svg>