<svg width="96" height="96" xmlns="http://www.w3.org/2000/svg" xmlns:xlink="http://www.w3.org/1999/xlink" xml:space="preserve" overflow="hidden"><g transform="translate(-626 -378)"><path d="M717.3 412 713.5 408.2C712.6 407.3 711.3 407.3 710.4 408.1 709.6 408.9 708.3 409 707.4 408.2 706.5 407.3 706.5 405.8 707.4 404.9 708.2 404 708.1 402.7 707.3 401.9L698 392.7C692.4 387.1 681.2 385.2 670.2 388.2 670.1 388.2 670 388.3 669.9 388.3 669.5 388.6 669.2 389 669.3 389.5 669.4 390 669.7 390.4 670.2 390.6 671.6 391.1 674.2 391.9 674.2 391.9 680.3 394 686.4 402 687.2 403.6L658.3 432.3 657.5 431.5C656.6 430.6 655.2 430.6 654.4 431.5L631.2 454.8 631.3 454.9C629.4 457.5 629.7 461 632 463.3 634.3 465.5 637.8 465.9 640.4 464L640.5 464.1 663.8 440.8C664.7 439.9 664.7 438.5 663.8 437.7L663 436.9 691.7 408.2 696.3 412.8C697.2 413.7 698.5 413.7 699.4 412.9 700.2 412.1 701.5 412 702.4 412.8 703.3 413.7 703.3 415.2 702.4 416.1 701.6 417 701.7 418.3 702.5 419.1L706.4 422.9C707.3 423.8 708.7 423.8 709.6 422.9L717.3 415.2C717.7 414.8 718 414.2 718 413.6 718 413 717.8 412.4 717.3 412Z" fill="#FFFFFF"/></g></svg>