<svg width="96" height="96" xmlns="http://www.w3.org/2000/svg" xmlns:xlink="http://www.w3.org/1999/xlink" xml:space="preserve" overflow="hidden"><g transform="translate(-313 -216)"><path d="M357.9 288.4C357.4 288.4 356.8 288.3 356.4 287.9 355.6 287.2 355.5 285.9 356.2 285.1L360.1 280.6C360.8 279.8 362.1 279.7 362.9 280.4 363.7 281.1 363.8 282.4 363.1 283.2L359.2 287.7C358.9 288.1 358.4 288.3 357.9 288.4Z" fill="#FFFFFF"/><path d="M351.8 286.1C351.1 286.2 350.5 286 349.9 285.5 348.9 284.6 348.8 283 349.7 282L354.3 276.7C355.2 275.7 356.8 275.6 357.8 276.5 358.8 277.4 358.9 279 358 280L353.4 285.3C353 285.8 352.4 286.1 351.8 286.1Z" fill="#FFFFFF"/><path d="M345.5 282.4C344.7 282.5 343.9 282.2 343.3 281.7 342.1 280.6 341.9 278.7 343 277.5L347.6 272.2C348.7 271 350.6 270.8 351.8 271.9 353 273 353.2 274.9 352.1 276.1L347.5 281.4C347 282 346.2 282.4 345.5 282.4Z" fill="#FFFFFF"/><path d="M338.2 278.7C337.4 278.8 336.6 278.5 336 278 334.8 276.9 334.6 275 335.7 273.8L341 267.8C342.1 266.6 344 266.4 345.2 267.5 346.4 268.6 346.6 270.5 345.5 271.7L340.2 277.7C339.6 278.3 338.9 278.6 338.2 278.7Z" fill="#FFFFFF"/><path d="M317.6 256.7 325.3 261.4C326.2 262 327.5 261.7 328 260.7L337.3 245.3C337.9 244.4 337.6 243.1 336.6 242.6L329 237.9 317.6 256.7Z" fill="#FFFFFF"/><path d="M382.4 269.8 366.3 256 365.2 255 358.3 262.9C357.3 264.1 355.9 264.8 354.3 264.9 354.1 264.9 353.9 264.9 353.8 264.9 352.3 264.9 350.9 264.4 349.9 263.4 347.4 261.2 347.2 257.4 349.3 254.9L355.2 248.1C350.6 247.5 344.7 249.9 338.6 246.9L329.9 261.3 336.7 269.2 339.3 266.2C340.2 265.1 341.6 264.5 343.1 264.5L343.1 264.5C344.3 264.5 345.5 264.9 346.4 265.7 347.5 266.6 348 267.9 348.1 269.3 348.6 269.1 349.2 269 349.8 269 351 269 352.2 269.4 353.1 270.2 354.2 271.2 354.8 272.5 354.8 273.9 355.2 273.8 355.7 273.7 356.1 273.7L356.1 273.7C357.2 273.7 358.2 274.1 359.1 274.8 360 275.6 360.5 276.7 360.6 277.9 360.9 277.8 361.3 277.7 361.7 277.7L361.7 277.7C362.7 277.7 363.6 278 364.3 278.7 365.1 279.4 365.6 280.4 365.7 281.4 365.8 282.5 365.4 283.5 364.7 284.3L361.3 288.2 362.7 289.3C363.4 289.7 364.2 290 365.1 289.9 367.3 289.7 368.9 287.8 368.7 285.6 368.7 285.6 368.7 285.5 368.7 285.5 369 285.6 369.4 285.6 369.7 285.6 371.9 285.4 373.5 283.5 373.3 281.3 373.3 281.3 373.3 281.2 373.3 281.2 373.6 281.3 374 281.3 374.3 281.3 376.5 281.1 378.1 279.2 377.9 277 377.9 276.8 377.8 276.6 377.8 276.4 378.4 276.7 379.1 276.9 379.9 276.8 382.1 276.6 383.7 274.7 383.5 272.5 383.6 271.4 383.1 270.5 382.4 269.8Z" fill="#FFFFFF"/><path d="M404.4 256.7 396.7 261.4C395.8 262 394.5 261.7 394 260.7L384.7 245.3C384.1 244.4 384.4 243.1 385.4 242.6L393.1 237.9 404.4 256.7Z" fill="#FFFFFF"/><path d="M383.5 247.3C375.2 250.3 369.2 247.4 362.5 246.1 362.4 246.1 362 246 362 246 360.8 245.9 359.5 246.3 358.6 247.3L350.7 256.3C349.2 258 349.4 260.5 351.1 261.9 352 262.6 353 263 354.1 262.9 355.1 262.8 356.1 262.4 356.8 261.5 356.8 261.5 365 252.1 365 252.1L383.7 268.2 383.7 268.2 383.7 268.2C384.2 268.7 384.4 268.9 384.8 269.5L392 261.2 383.5 247.3Z" fill="#FFFFFF"/></g></svg>