<svg width="96" height="96" xmlns="http://www.w3.org/2000/svg" xmlns:xlink="http://www.w3.org/1999/xlink" xml:space="preserve" overflow="hidden"><g transform="translate(-915 -392)"><path d="M991 410C991 414.418 978.464 418 963 418 947.536 418 935 414.418 935 410 935 405.582 947.536 402 963 402 978.464 402 991 405.582 991 410Z" fill="#FFFFFF"/><path d="M983 430C981.8 430 981 429.2 981 428 981 426.8 981.8 426 983 426 984.2 426 985 426.8 985 428 985 429.2 984.2 430 983 430ZM963 422C947.6 422 935 418.4 935 414L935 430C935 434.4 947.6 438 963 438 978.4 438 991 434.4 991 430L991 414C991 418.4 978.4 422 963 422Z" fill="#FFFFFF"/><path d="M983 450C981.8 450 981 449.2 981 448 981 446.8 981.8 446 983 446 984.2 446 985 446.8 985 448 985 449.2 984.2 450 983 450ZM963 442C947.6 442 935 438.4 935 434L935 450C935 454.4 947.6 458 963 458 978.4 458 991 454.4 991 450L991 434C991 438.4 978.4 442 963 442Z" fill="#FFFFFF"/><path d="M983 470C981.8 470 981 469.2 981 468 981 466.8 981.8 466 983 466 984.2 466 985 466.8 985 468 985 469.2 984.2 470 983 470ZM963 462C947.6 462 935 458.4 935 454L935 470C935 474.4 947.6 478 963 478 978.4 478 991 474.4 991 470L991 454C991 458.4 978.4 462 963 462Z" fill="#FFFFFF"/></g></svg>