<svg width="96" height="96" xmlns="http://www.w3.org/2000/svg" xmlns:xlink="http://www.w3.org/1999/xlink" xml:space="preserve" overflow="hidden"><g transform="translate(-1150 -610)"><path fill="#FFFFFF" d="M1204 636.5 1200.8 634.1C1200.4 633.8 1200.1 633.4 1199.9 632.9L1201.3 633.2C1201.4 633.2 1201.5 633.2 1201.6 633.2 1202.3 633.2 1202.9 632.7 1203.1 632 1203.3 631.2 1202.7 630.4 1201.9 630.2L1200.8 630C1201.1 629.8 1201.5 629.6 1201.8 629.6 1201.9 629.6 1202.1 629.6 1202.2 629.6 1202.7 629.6 1203.2 629.8 1203.7 630.1L1206.9 632.5C1207.8 633.2 1208.1 634.3 1207.8 635.3L1207.6 634.9C1207.2 634.2 1206.3 633.9 1205.6 634.2 1204.9 634.6 1204.6 635.5 1204.9 636.2L1205.3 637C1204.9 636.9 1204.4 636.8 1204 636.5ZM1210.2 647.7C1209.7 646.7 1210.1 645.5 1211.1 645 1212 644.5 1213.1 644.9 1213.7 645.7 1214.2 646.7 1213.8 647.9 1212.8 648.4 1211.9 648.9 1210.8 648.6 1210.2 647.7ZM1190.4 631.7 1186.4 631.9C1186 631.9 1185.6 631.8 1185.3 631.7L1186.2 631.2C1186.9 630.8 1187.2 629.9 1186.7 629.1 1186.3 628.4 1185.4 628.1 1184.6 628.6L1183.8 629C1183.9 628.5 1184.1 628 1184.4 627.7 1184.8 627.2 1185.5 626.9 1186.1 626.9L1190.1 626.7 1190.2 626.7C1190.8 626.7 1191.4 626.9 1191.9 627.3 1192.2 627.6 1192.5 628 1192.6 628.4L1191.3 628.1C1190.5 627.9 1189.7 628.5 1189.5 629.3 1189.3 630.1 1189.9 630.9 1190.7 631.1L1191.5 631.3C1191.2 631.5 1190.8 631.6 1190.4 631.7ZM1177.6 639.3C1177.5 640 1177.1 640.6 1176.5 641L1176.5 639.4C1176.5 638.6 1175.8 637.9 1175 637.9 1174.2 637.9 1173.5 638.6 1173.5 639.4L1173.5 640.8C1172.9 640.3 1172.5 639.4 1172.6 638.6L1173.2 634.6C1173.3 633.9 1173.6 633.4 1174.2 633 1174.7 632.6 1175.4 632.4 1176.1 632.5 1176.5 632.6 1176.9 632.7 1177.2 632.9L1176 633.6C1175.3 634 1175 634.9 1175.5 635.7 1175.8 636.2 1176.3 636.4 1176.8 636.4 1177.1 636.4 1177.3 636.3 1177.6 636.2L1178.2 635.8 1177.6 639.3ZM1177 652C1177 653.1 1176.1 654 1175 654 1173.9 654 1173 653.1 1173 652 1173 650.9 1173.9 650 1175 650 1176.1 650 1177 650.9 1177 652ZM1238.8 655.4C1235.1 648.1 1227.5 644 1219.8 644.5L1218.3 641.4C1218.2 641.1 1218 640.9 1217.8 640.7 1216.7 639.1 1214.5 638.5 1212.7 639.4L1210.5 640.5 1209.3 638.2C1209.5 638 1209.7 637.8 1209.9 637.6 1211.7 635.1 1211.1 631.7 1208.7 629.9L1205.5 627.5C1204.3 626.6 1202.9 626.3 1201.4 626.5 1199.9 626.7 1198.7 627.5 1197.8 628.7 1197.7 628.9 1197.6 629.1 1197.5 629.2L1195.7 629C1195.7 628.9 1195.7 628.9 1195.7 628.8 1195.6 627.3 1195 626 1193.9 625 1192.8 624 1191.4 623.5 1189.9 623.6L1185.9 623.8C1182.9 624 1180.5 626.6 1180.7 629.6 1180.7 630 1180.8 630.3 1180.9 630.7L1179.8 631.4C1178.9 630.4 1177.8 629.8 1176.5 629.6 1175 629.4 1173.6 629.8 1172.4 630.6 1171.2 631.5 1170.5 632.8 1170.3 634.2L1169.7 638.2C1169.5 639.7 1169.9 641.1 1170.7 642.3 1171.4 643.2 1172.4 643.9 1173.5 644.2L1173.5 646 1171 646C1168.8 646 1167 647.8 1167 650L1167 653.7C1159.9 656.8 1155 663.8 1155 672 1155 683 1164 692 1175 692 1179.4 692 1183.5 690.5 1186.8 688.1L1182.5 683.8C1180.4 685.2 1177.8 686 1175 686 1167.3 686 1161 679.7 1161 672 1161 664.3 1167.3 658 1175 658 1182.7 658 1189 664.3 1189 672 1189 674.8 1188.2 677.4 1186.8 679.5L1189.7 682.4C1191.8 679.5 1193 675.9 1193 672 1193 665 1188.9 658.9 1183 655.9L1183 650C1183 647.8 1181.2 646 1179 646L1176.5 646 1176.5 644.3C1178.6 643.8 1180.3 642 1180.6 639.8L1181.2 635.8C1181.3 635.2 1181.2 634.7 1181.2 634.1L1182.6 633.3C1182.6 633.3 1182.7 633.4 1182.7 633.5 1183.7 634.4 1185 634.9 1186.4 634.9 1186.5 634.9 1186.6 634.9 1186.7 634.9L1190.7 634.7C1192.2 634.6 1193.5 634 1194.5 632.9 1194.8 632.6 1195 632.3 1195.2 632L1197 632.4C1197 632.6 1197 632.8 1197 633 1197.2 634.5 1198 635.7 1199.2 636.6L1202.4 639C1203.4 639.7 1204.5 640.1 1205.6 640.1 1206 640.1 1206.5 640 1206.9 639.9L1208 642.1 1205.8 643.2C1203.8 644.2 1203 646.6 1204 648.6L1206 652.6 1206.6 653.9C1204.4 656.9 1203.1 660.6 1203 664.3 1202.9 667.2 1203.5 670.1 1204.9 672.9 1206.6 676.4 1209.4 679 1212.5 680.7L1212.6 680.5 1213.9 676.6C1211.7 675.3 1209.8 673.4 1208.5 670.9 1207.4 668.8 1206.9 666.5 1207 664.3 1207.2 659.3 1210 654.6 1214.7 652.3 1221.6 648.8 1230 651.7 1233.5 658.6 1234.5 660.7 1235 662.9 1235 665.1 1234.8 670 1232 674.7 1227.4 677.1 1224.9 678.4 1222.2 678.8 1219.7 678.5L1219.6 678.7 1217.7 684.5C1221.8 685.2 1226.1 684.7 1230 682.7 1236.9 679.3 1240.9 672.4 1241 665.3 1241.1 661.9 1240.4 658.6 1238.8 655.4Z"/></g></svg>