<svg width="96" height="96" xmlns="http://www.w3.org/2000/svg" xmlns:xlink="http://www.w3.org/1999/xlink" xml:space="preserve" overflow="hidden"><g transform="translate(-950 -192)"><path d="M1033 217 1005 217 1005 216C1005 214.895 1004.1 214 1003 214 1001.9 214 1001 214.895 1001 216L1001 217 973 217C971.895 217 971 217.895 971 219 971 220.105 971.895 221 973 221L1001 221 1001 227 995.53 227 993.73 230 966.85 230 960.19 223.34C959.373 222.597 958.108 222.657 957.365 223.474 956.673 224.235 956.671 225.397 957.36 226.16L964 232.83 964 243C964 244.105 964.895 245 966 245 967.105 245 968 244.105 968 243L968 234 989 234 989 243C989 248.47 993.72 253.55 999 255L1001.4 255 998.5 262 984 262 984 266 1025.5 266C1027.44 266 1032.5 264.56 1032.5 258L1028.5 258C1028.5 261.63 1026.18 262 1025.5 262L1018.5 262 1015.61 255 1019.02 255C1029.57 255 1027.27 243.18 1027.27 243.18 1027.27 243.18 1024.53 231.76 1011 231L1008.58 227 1005 227 1005 221 1033 221C1034.1 221 1035 220.105 1035 219 1035 217.895 1034.1 217 1033 217ZM1014.22 262 1002.83 262 1005.73 255 1011.33 255ZM1023.42 244.07C1023.47 244.378 1023.5 244.689 1023.51 245L1013.51 245 1010.51 235C1021.06 235.51 1023.29 243.55 1023.42 244.07Z"/></g></svg>