<svg width="96" height="96" xmlns="http://www.w3.org/2000/svg" xmlns:xlink="http://www.w3.org/1999/xlink" xml:space="preserve" overflow="hidden"><g transform="translate(-544 -303)"><path fill="#FFFFFF" d="M589.156 392C593.156 362 610.156 335 629.156 329L629.156 325C609.156 329 576.156 353 558.156 392Z"/><path fill="#FFFFFF" d="M628.581 367.4 628.581 359 624.632 359 624.632 363.6 616.733 356 616.733 356 596 376 598.221 377.9 616.733 360.1 616.733 360.1 635.245 377.9 637.467 376 628.581 367.4 628.581 367.4Z"/><path fill="#FFFFFF" d="M601.924 377.15 601.924 392 613.771 392 613.771 379.5 619.695 379.5 619.695 392 631.543 392 631.543 377.15 616.733 362.9 601.924 377.15ZM610.81 385.5 604.886 385.5 604.886 379.5 610.81 379.5 610.81 385.5ZM622.657 379.5 628.581 379.5 628.581 385.5 622.657 385.5 622.657 379.5Z"/><path fill="#FFFFFF" d="M575.348 335.817 575.348 328.583 571.948 328.583 571.948 332.544 565.146 326 565.146 326 547.292 343.222 549.205 344.858 565.146 329.531 565.146 329.531 581.087 344.858 583 343.222 575.348 335.817 575.348 335.817Z"/><path fill="#FFFFFF" d="M552.394 344.213 552.394 357 562.6 357 562.6 346.236 567.7 346.236 567.7 357 577.9 357 577.9 344.213 565.146 331.942 552.394 344.213ZM560.045 351.403 554.945 351.403 554.945 346.236 560.045 346.236 560.045 351.4ZM570.245 346.236 575.345 346.236 575.345 351.4 570.245 351.4 570.245 346.236Z"/><path fill="#FFFFFF" d="M605.323 316.283 605.323 310.917 602.8 310.917 602.8 313.856 597.754 309 597.754 309 584.507 321.778 585.927 322.992 597.754 311.619 597.754 311.619 609.581 322.992 611 321.778 605.323 316.283 605.323 316.283Z"/><path fill="#FFFFFF" d="M588.292 322.513 588.292 332 595.861 332 595.861 324.014 599.646 324.014 599.646 332 607.215 332 607.215 322.513 597.754 313.408 588.292 322.513ZM593.969 327.847 590.184 327.847 590.184 324.014 593.969 324.014 593.969 327.847ZM601.538 324.014 605.323 324.014 605.323 327.847 601.538 327.847 601.538 324.014Z"/></g></svg>