<svg width="96" height="96" xmlns="http://www.w3.org/2000/svg" xmlns:xlink="http://www.w3.org/1999/xlink" xml:space="preserve" overflow="hidden"><g transform="translate(-191 -346)"><path d="M250.539 415 250.539 401.371 236.789 388.31 223.039 401.372 223.039 415 234.039 415 234.039 403.542 239.539 403.542 239.539 415 250.539 415Z"/><path d="M284.446 362.834 281.166 359.554C280.455 358.827 279.29 358.814 278.563 359.524 278.553 359.534 278.543 359.544 278.533 359.554L275.251 362.837 281.117 368.7 284.4 365.421C285.126 364.783 285.197 363.677 284.559 362.951 284.523 362.91 284.486 362.871 284.446 362.834Z"/><path d="M279.749 370.163 273.837 364.251 250.91 387.223 248.91 393.257 236.832 381.727 236.832 381.727 218.042 399.6 220.123 401.378 236.831 385.509 236.831 385.509 247.955 396.045 248.725 395.761 256.825 393.09ZM255.849 391.473 251.923 392.766 251.23 392.074 252.523 388.147C253.461 387.26 254.936 387.28 255.849 388.193 256.756 389.072 256.778 390.52 255.899 391.427 255.884 391.443 255.868 391.458 255.853 391.473Z"/><path d="M260 422 203 422C201.895 422 201 421.105 201 420 201 418.895 201.895 418 203 418L213 418 213 376 257.874 376 263.862 370 213 370 213 360 203 360C198.584 360.005 195.005 363.584 195 368L195 420C195.005 424.416 198.584 427.995 203 428L266 428 266 388.155 260 394.155ZM201 368C201 366.895 201.895 366 203 366L207 366 207 412 203 412C202.325 412 201.653 412.085 201 412.253Z"/></g></svg>