<svg width="96" height="96" xmlns="http://www.w3.org/2000/svg" xmlns:xlink="http://www.w3.org/1999/xlink" xml:space="preserve" overflow="hidden"><g transform="translate(-360 -595)"><path fill="#FFFFFF" d="M385.004 617.003 390.004 617.003 390.004 619.004 385.004 619.004 385.004 617.003 385.004 617.003Z"/><path fill="#FFFFFF" d="M391.844 613.342 388.364 609.791 389.784 608.341 393.254 611.892 391.844 613.342 391.844 613.342 391.844 613.342Z"/><path fill="#FFFFFF" d="M404.005 618.124C404.004 621.438 401.317 624.123 398.003 624.123 394.689 624.122 392.003 621.435 392.004 618.121 392.005 614.808 394.691 612.122 398.004 612.122 401.319 612.122 404.005 614.81 404.005 618.124Z"/><path fill="#FFFFFF" d="M397.004 605 399.004 605 399.004 610.001 397.004 610.001 397.004 605 397.004 605Z"/><path fill="#FFFFFF" d="M406.005 617.003 411.005 617.003 411.005 619.004 406.005 619.004 406.005 617.003 406.005 617.003Z"/><path fill="#FFFFFF" d="M404.165 613.342 407.645 609.791 406.225 608.341 402.755 611.892 404.165 613.342 404.165 613.342 404.165 613.342Z"/><path fill="#FFFFFF" d="M391.844 622.775 388.364 626.336 389.784 627.776 393.254 624.225 391.844 622.775 391.844 622.775 391.844 622.775Z"/><path fill="#FFFFFF" d="M397.004 626.126 399.004 626.126 399.004 631.127 397.004 631.127 397.004 626.126 397.004 626.126Z"/><path fill="#FFFFFF" d="M404.165 622.775 407.645 626.336 406.225 627.776 402.755 624.225 404.165 622.775 404.165 622.775 404.165 622.775Z"/><path fill="#FFFFFF" d="M447.388 663.741C451.03 663.085 453.762 659.551 453.762 654.517 453.762 648.931 447.995 637.382 446.173 637.382 444.352 637.382 438.585 648.919 438.585 654.517 438.585 659.551 441.347 663.085 444.959 663.741L444.959 675 439.342 675 439.342 664.068C437.73 662.476 436.591 660.468 436.053 658.267L425.035 647.666 410.728 661.433 410.728 675 398.282 675 398.282 661.433 383.974 647.666 369.667 661.433 369.667 675 364.005 675 364.005 681 452.005 681 452.005 675 447.388 675ZM430.758 663.703 436.481 663.703 436.481 669.5 430.758 669.5ZM413.589 663.703 419.312 663.703 419.312 669.5 413.589 669.5ZM422.174 663.703 427.897 663.703 427.897 675 422.174 675ZM389.698 663.703 395.42 663.703 395.42 669.5 389.698 669.5ZM372.529 663.703 378.251 663.703 378.251 669.5 372.529 669.5ZM381.113 663.703 386.836 663.703 386.836 675 381.113 675Z"/><path fill="#FFFFFF" d="M425.035 644.961 435.604 655.123C435.596 654.922 435.585 654.721 435.585 654.517 435.599 653.502 435.71 652.489 435.914 651.494L425.035 641 405.843 659.484 407.989 661.319Z"/><path fill="#FFFFFF" d="M383.975 644.961 401.025 661.323 403.171 659.488 395.42 652.013 395.42 643.898 391.605 643.898 391.605 648.342 383.975 641 364.778 659.488 366.924 661.323 383.975 644.961Z"/></g></svg>