<svg width="96" height="96" xmlns="http://www.w3.org/2000/svg" xmlns:xlink="http://www.w3.org/1999/xlink" xml:space="preserve" overflow="hidden"><g transform="translate(-419 -534)"><path d="M467 546 466.998 546 425 585.953 429.54 589.833 466.998 554.25 467 554.25 504.458 589.833 508.998 585.953 467 546Z"/><path d="M467 559.766 437 588.266 437 618 474.5 618 474.5 603.9 467 603.9C465.895 603.9 465 603.005 465 601.9L465 590.5C465 589.395 465.895 588.5 467 588.5L474.5 588.5 474.5 587C474.5 586.172 475.172 585.5 476 585.5 476.828 585.5 477.5 586.172 477.5 587L477.5 588.5 485 588.5C486.105 588.5 487 589.395 487 590.5L487 601.9C487 603.005 486.105 603.9 485 603.9L477.5 603.9 477.5 618 497 618 497 588.264Z"/></g></svg>