<svg width="96" height="96" xmlns="http://www.w3.org/2000/svg" xmlns:xlink="http://www.w3.org/1999/xlink" xml:space="preserve" overflow="hidden"><g transform="translate(-504 -412)"><path fill="#FFFFFF" d="M552 433.8 566.4 448.3 569.2 445.5 552 429 534.4 445.8 537.2 448.6Z"/><path fill="#FFFFFF" d="M584 469.9 576 469.9 576 461.9 584 461.9 584 469.9ZM584 481.9 576 481.9 576 473.9 584 473.9 584 481.9ZM572 469.9 564 469.9 564 461.9 572 461.9 572 469.9ZM572 481.9 564 481.9 564 473.9 572 473.9 572 481.9ZM559 469.9 545 469.9 545 465.9 559 465.9 559 469.9ZM552 450.9C553.7 450.9 555 452.2 555 453.9 555 455.6 553.7 456.9 552 456.9 550.3 456.9 549 455.6 549 453.9 549 452.2 550.3 450.9 552 450.9ZM540 469.9 532 469.9 532 461.9 540 461.9 540 469.9ZM540 481.9 532 481.9 532 473.9 540 473.9 540 481.9ZM528 469.9 520 469.9 520 461.9 528 461.9 528 469.9ZM528 481.9 520 481.9 520 473.9 528 473.9 528 481.9ZM564 456.9 564 450.9 552 438.9 540 450.9 540 456.9 516 456.9 516 490.9 545 490.9 545 479.9C545 477.1 547 473.9 552 473.9 557 473.9 559 477.1 559 479.9L559 490.9 588 490.9 588 456.9 564 456.9Z"/></g></svg>