<svg width="96" height="96" xmlns="http://www.w3.org/2000/svg" xmlns:xlink="http://www.w3.org/1999/xlink" xml:space="preserve" overflow="hidden"><g transform="translate(-84 -544)"><path fill="#FFFFFF" d="M132 554C111 554 94 571 94 592 94 613 111 630 132 630 153 630 170 613 170 592 170 571 153 554 132 554ZM130 564C132.8 564 135 566.2 135 569 135 571.8 132.8 574 130 574 127.2 574 125 571.8 125 569 125 566.2 127.2 564 130 564ZM142 620 122 620 122 614 129 614 129 584 123 584 123 578 135 578 135 584 135 614 142 614 142 620Z"/></g></svg>