<svg width="96" height="96" xmlns="http://www.w3.org/2000/svg" xmlns:xlink="http://www.w3.org/1999/xlink" xml:space="preserve" overflow="hidden"><g transform="translate(-4 -617)"><path fill="#FFFFFF" d="M83 653C84.1046 653 85 652.105 85 651L85 646C85.0002 645.216 84.5419 644.504 83.828 644.179L61.828 634.179C61.6765 634.112 61.5173 634.065 61.354 634.038L60.987 630.777C60.95 630.445 60.8304 630.127 60.639 629.853L53.639 619.853C53.006 618.948 51.759 618.727 50.8538 619.36 50.662 619.494 50.4952 619.661 50.361 619.853L43.361 629.853C43.1696 630.127 43.05 630.445 43.013 630.777L42.646 634.038C42.4827 634.065 42.3235 634.112 42.172 634.179L20.172 644.179C19.4581 644.504 18.9998 645.216 19 646L19 651C19 652.105 19.8954 653 21 653 22.1046 653 23 652.105 23 651L23 648 41.081 648 40.054 657.144 20.176 666.179C19.4605 666.503 19.0005 667.215 19 668L19 673C19 674.105 19.8954 675 21 675 22.1046 675 23 674.105 23 673L23 670 38.609 670 38.047 675.007 24.822 708.1C24.412 709.126 24.911 710.289 25.9366 710.7 26.428 710.896 26.9772 710.89 27.464 710.682L51.951 700.241 76.584 710.753C77.5997 711.187 78.775 710.716 79.2091 709.7 79.4174 709.213 79.4238 708.663 79.227 708.171L65.961 675.008 65.4 670 81 670 81 673C81 674.105 81.8954 675 83 675 84.1046 675 85 674.105 85 673L85 668C85.0002 667.216 84.5419 666.504 83.828 666.179L63.954 657.144 62.926 648 81 648 81 651C81 652.105 81.8954 653 83 653ZM46.23 638 57.778 638 58.452 644 45.552 644ZM52 624.488 57.069 631.729 57.328 634 46.679 634 46.935 631.729ZM30.237 644 42.137 638.59 41.531 644ZM60.924 666 43.084 666 43.758 660 60.25 660ZM30.237 666 39.537 661.774 39.059 666ZM63.1 678.632 65.849 685.5 56.838 681.45ZM65.94 689.926 51.951 695.892 37.974 689.926 51.959 683.641ZM38.18 685.447 40.889 678.667 47.077 681.448ZM30.32 705.114 35.135 693.065 46.851 698.065ZM57.046 698.067 68.862 693.03 73.723 705.184ZM61.908 674.783 51.956 679.256 42.09 674.821 42.634 670 61.374 670ZM73.771 666 64.949 666 64.474 661.774ZM59.8 656 44.207 656 45.107 648 58.9 648ZM61.869 638.59 73.771 644 62.477 644Z"/></g></svg>