<svg width="96" height="96" xmlns="http://www.w3.org/2000/svg" xmlns:xlink="http://www.w3.org/1999/xlink" xml:space="preserve" overflow="hidden"><g transform="translate(-242 -547)"><path fill="#FFFFFF" d="M277.92 619.2C277.396 618.527 277.488 617.562 278.13 617L292.62 604.22C293.291 603.628 293.355 602.604 292.763 601.933 292.719 601.883 292.671 601.835 292.62 601.79L276.33 587.5 247 609.28 247 633 290.28 633Z"/><path fill="#FFFFFF" d="M306.81 575.11 289 594.86 297.68 602.86C298.335 603.462 298.377 604.48 297.775 605.135 297.745 605.168 297.713 605.2 297.68 605.23L285.47 616.63C284.817 617.233 284.776 618.252 285.379 618.905 285.46 618.993 285.551 619.072 285.65 619.14L305.75 633 333 633 333 601.3Z"/><path fill="#FFFFFF" d="M251 568 256 568 256 570 251 570Z"/><path fill="#FFFFFF" d="M257.84 564.34 254.36 560.79 255.78 559.34 259.25 562.89 257.84 564.34Z"/><path fill="#FFFFFF" d="M270 569.12C270 572.434 267.314 575.12 264 575.12 260.686 575.12 258 572.434 258 569.12 258 565.806 260.686 563.12 264 563.12 267.314 563.12 270 565.806 270 569.12Z"/><path fill="#FFFFFF" d="M263 556 265 556 265 561 263 561Z"/><path fill="#FFFFFF" d="M272 568 277 568 277 570 272 570Z"/><path fill="#FFFFFF" d="M270.16 564.34 273.64 560.79 272.22 559.34 268.75 562.89 270.16 564.34Z"/><path fill="#FFFFFF" d="M257.84 573.77 254.36 577.33 255.78 578.77 259.25 575.22 257.84 573.77Z"/><path fill="#FFFFFF" d="M263 577.12 265 577.12 265 582.12 263 582.12Z"/><path fill="#FFFFFF" d="M270.16 573.77 273.64 577.33 272.22 578.77 268.75 575.22 270.16 573.77Z"/></g></svg>