<svg width="96" height="96" xmlns="http://www.w3.org/2000/svg" xmlns:xlink="http://www.w3.org/1999/xlink" xml:space="preserve" overflow="hidden"><g transform="translate(-876 -355)"><path fill="#FFFFFF" d="M967.7 427.8 947.7 395.8C947.3 395.2 946.7 394.9 946 394.9 945.3 394.9 944.7 395.3 944.3 395.8L938.4 405.2 951 425.6C952.1 427.2 952.3 429.2 951.6 431L965.8 431C966.6 431 967.3 430.6 967.7 429.9 968.1 429.2 968.1 428.4 967.7 427.8L967.7 427.8Z"/><path fill="#FFFFFF" d="M919.1 398.1 914 402.7 908.9 398.2 899.3 404 914 380 928.7 404 919.1 398.1ZM947.6 427.8 915.7 375.9C915.3 375.4 914.7 375 914 375 913.3 375 912.7 375.3 912.3 375.9L880.4 427.8C879.9 428.4 879.9 429.3 880.2 430 880.6 430.6 881.3 431 882.1 431L945.9 431C946.7 431 947.4 430.6 947.8 429.9 948.1 429.2 948.1 428.4 947.6 427.8Z"/></g></svg>