<svg width="96" height="96" xmlns="http://www.w3.org/2000/svg" xmlns:xlink="http://www.w3.org/1999/xlink" xml:space="preserve" overflow="hidden"><g transform="translate(-543 -582)"><path fill="#FFFFFF" d="M585.33 645C591.711 641.689 598.812 640.013 606 640.12L606.42 640.12C600.999 635.765 594.301 633.306 587.35 633.12 582.726 633.104 578.155 634.104 573.96 636.05 578.331 638.211 582.203 641.259 585.33 645Z"/><path fill="#FFFFFF" d="M555.51 656C571.45 654.74 579.76 648.78 580.31 648.38 581.08 647.723 581.888 647.112 582.73 646.55 570.4 632.29 548 634 548 634L548 656.31Z"/><path fill="#FFFFFF" d="M630.46 651.41C629.687 650.688 628.865 650.019 628 649.41L628 637.7C631.389 636.527 633.618 633.284 633.5 629.7 633.5 624.7 627.62 613.52 626 613.52 624.38 613.52 618.5 624.74 618.5 629.7 618.382 633.284 620.611 636.527 624 637.7L624 647.08C620.214 645.266 616.163 644.068 612 643.53L612 623.76C616.64 622.76 620.14 618.06 620.14 611.51 620.14 604.05 612.43 588 610 588 607.57 588 599.86 604.05 599.86 611.51 599.86 618.06 603.36 622.72 608 623.76L608 643.17C607.32 643.17 606.64 643.12 606 643.12 596.62 643.12 587.94 645.91 582.24 650.75 582.14 650.82 573.35 657.65 555.73 659.02L548 659 548 670 634 670 634 654.21Z"/><path fill="#FFFFFF" d="M559 600 564 600 564 602 559 602Z"/><path fill="#FFFFFF" d="M565.84 596.34 562.36 592.79 563.78 591.34 567.25 594.89 565.84 596.34Z"/><path fill="#FFFFFF" d="M578 601.12C578 604.434 575.314 607.12 572 607.12 568.686 607.12 566 604.434 566 601.12 566 597.806 568.686 595.12 572 595.12 575.314 595.12 578 597.806 578 601.12Z"/><path fill="#FFFFFF" d="M571 588 573 588 573 593 571 593Z"/><path fill="#FFFFFF" d="M580 600 585 600 585 602 580 602Z"/><path fill="#FFFFFF" d="M578.16 596.34 581.64 592.79 580.22 591.34 576.75 594.89 578.16 596.34Z"/><path fill="#FFFFFF" d="M565.84 605.77 562.36 609.33 563.78 610.77 567.25 607.22 565.84 605.77Z"/><path fill="#FFFFFF" d="M571 609.12 573 609.12 573 614.12 571 614.12Z"/><path fill="#FFFFFF" d="M578.16 605.77 581.64 609.33 580.22 610.77 576.75 607.22 578.16 605.77Z"/></g></svg>