<svg width="96" height="96" xmlns="http://www.w3.org/2000/svg" xmlns:xlink="http://www.w3.org/1999/xlink" xml:space="preserve" overflow="hidden"><g transform="translate(-610 -451)"><path d="M670 476C670 479.866 666.866 483 663 483 659.134 483 656 479.866 656 476 656 472.134 659.134 469 663 469 666.866 469 670 472.134 670 476Z"/><path d="M646 518C646 524.075 641.075 529 635 529 628.925 529 624 524.075 624 518 624 511.925 628.925 507 635 507 641.075 507 646 511.925 646 518Z"/><path d="M692 518C692 524.075 687.075 529 681 529 674.925 529 670 524.075 670 518 670 511.925 674.925 507 681 507 687.075 507 692 511.925 692 518Z"/><path d="M661.2 499.8 656.2 499.3 660.9 491.2 671.6 497C671.5 497.1 671.5 497.2 671.4 497.3L663 502 663 501.8C663 500.8 662.2 499.9 661.2 499.8ZM681 504C682.9 504 684.7 504.4 686.3 505.1 687.3 503.3 688 501.2 688 499 688 492.4 682.6 487 676 487 674.6 487 673.3 487.3 672 487.7 672.5 488.7 672.8 489.8 672.9 491L659.4 483.6C659.2 483.5 659 483.4 658.8 483.4 656.5 482.5 653.9 483.3 652.6 485.5L645.6 497.5C645.5 497.7 645.4 498 645.3 498.2L624 496 624 500 639 504.6C644.8 506.3 649 511.7 649 518 649 519.4 648.8 520.7 648.4 522L667.6 522C667.2 520.7 667 519.4 667 518 667 510.3 673.3 504 681 504Z"/></g></svg>