<svg width="96" height="96" xmlns="http://www.w3.org/2000/svg" xmlns:xlink="http://www.w3.org/1999/xlink" xml:space="preserve" overflow="hidden"><g transform="translate(-552 -113)"><path d="M579 145C579 146.105 578.105 147 577 147 575.895 147 575 146.105 575 145 575 143.895 575.895 143 577 143 578.105 143 579 143.895 579 145Z"/><path d="M579 153C579 154.105 578.105 155 577 155 575.895 155 575 154.105 575 153 575 151.895 575.895 151 577 151 578.105 151 579 151.895 579 153Z"/><path d="M575 149C575 150.105 574.105 151 573 151 571.895 151 571 150.105 571 149 571 147.895 571.895 147 573 147 574.105 147 575 147.895 575 149Z"/><path d="M583 149C583 150.105 582.105 151 581 151 579.895 151 579 150.105 579 149 579 147.895 579.895 147 581 147 582.105 147 583 147.895 583 149Z"/><path d="M607 141C607 142.105 606.105 143 605 143 603.895 143 603 142.105 603 141 603 139.895 603.895 139 605 139 606.105 139 607 139.895 607 141Z"/><path d="M607 149C607 150.105 606.105 151 605 151 603.895 151 603 150.105 603 149 603 147.895 603.895 147 605 147 606.105 147 607 147.895 607 149Z"/><path d="M603 145C603 146.105 602.105 147 601 147 599.895 147 599 146.105 599 145 599 143.895 599.895 143 601 143 602.105 143 603 143.895 603 145Z"/><path d="M611 145C611 146.105 610.105 147 609 147 607.895 147 607 146.105 607 145 607 143.895 607.895 143 609 143 610.105 143 611 143.895 611 145Z"/><path d="M634 158 628 164 620 164 620 186 628 186 634 192 640 192 640 158Z"/><path d="M605 154C600 154 596 150 596 145 596 140 600 136 605 136 610 136 614 140 614 145 614 150 610 154 605 154ZM608 186C606.9 186 606 185.1 606 184 606 182.9 606.9 182 608 182 609.1 182 610 182.9 610 184 610 185.1 609.1 186 608 186ZM589 158C590.3 156.2 591.3 154.2 591.7 151.9 593 154.4 595.1 156.5 597.5 158L589 158ZM577 158C572 158 568 154 568 149 568 144 572 140 577 140 582 140 586 144 586 149 586 154 582 158 577 158ZM612.4 158C616.9 155.4 620 150.6 620 145 620 136.7 613.3 130 605 130 597.7 130 591.7 135.2 590.3 142.1 587.8 137.3 582.8 134 577 134 568.7 134 562 140.7 562 149 562 153.9 564.4 158.2 568 161L568 164 566 164 564 162 560 162 560 172 564 172 566 170 568 170 568 188C568 190.2 569.8 192 572 192L612 192C614.2 192 616 190.2 616 188L616 162C616 159.9 614.4 158.2 612.4 158Z"/></g></svg>