<svg width="96" height="96" xmlns="http://www.w3.org/2000/svg" xmlns:xlink="http://www.w3.org/1999/xlink" xml:space="preserve" overflow="hidden"><g transform="translate(-447 -472)"><path d="M530 497C530 499.761 527.761 502 525 502 522.239 502 520 499.761 520 497 520 494.239 522.239 492 525 492 527.761 492 530 494.239 530 497Z"/><path d="M470 497C470 499.761 467.761 502 465 502 462.239 502 460 499.761 460 497 460 494.239 462.239 492 465 492 467.761 492 470 494.239 470 497Z"/><path d="M510 497C510 499.761 507.761 502 505 502 502.239 502 500 499.761 500 497 500 494.239 502.239 492 505 492 507.761 492 510 494.239 510 497Z"/><path d="M490 497C490 499.761 487.761 502 485 502 482.239 502 480 499.761 480 497 480 494.239 482.239 492 485 492 487.761 492 490 494.239 490 497Z"/><path d="M536.9 521.5 533.7 506.9C533.6 506.5 533.4 506.1 533 505.8 531.8 504.9 530.5 504.1 529 503.7 527.7 503.3 526.4 503 525 503 523.6 503 522.2 503.2 521 503.7 519.5 504.2 518.2 504.9 517 505.8 516.6 506.1 516.4 506.5 516.3 506.9L515 512.8 515 512.8 513.7 506.9C513.6 506.5 513.4 506.1 513 505.8 511.8 504.9 510.5 504.1 509 503.7 507.7 503.3 506.4 503 505 503 503.6 503 502.2 503.2 501 503.7 499.5 504.2 498.2 504.9 497 505.8 496.6 506.1 496.4 506.5 496.3 506.9L495 512.7 495 512.8 493.7 506.9C493.6 506.5 493.4 506.1 493 505.8 491.8 504.9 490.5 504.1 489 503.7 487.7 503.3 486.4 503 485 503 483.6 503 482.2 503.2 481 503.7 479.5 504.2 478.2 504.9 477 505.8 476.6 506.1 476.4 506.5 476.3 506.9L475 512.7 475 512.7 473.7 506.9C473.6 506.5 473.4 506.1 473 505.8 471.8 504.9 470.5 504.1 469 503.7 467.7 503.3 466.4 503 465 503 463.6 503 462.2 503.2 461 503.7 459.5 504.2 458.2 504.9 457 505.8 456.6 506.1 456.4 506.5 456.3 506.9L453.1 521.4C452.8 522.5 453.5 523.7 454.7 523.9 454.8 523.9 454.9 523.9 455 523.9 455.9 523.9 456.7 523.3 457 522.3L460 509 460 516.1 457 531 460 531 460 548 464 548 464 531 466 531 466 548 470 548 470 531 473 531 470 516.1 470 509 473 522.4C473.2 523.3 474 524 474.9 524L474.9 524C475.8 524 476.6 523.4 476.8 522.4L480 509 480 525 480 548 484 548 484 525 486 525 486 548 490 548 490 525 490 509 493 522.4C493.2 523.3 494 524 495 524 495 524 495 524 495 524L495 524C495.9 524 496.7 523.4 496.9 522.4L500 509 500 516.2 497 531 500 531 500 548 504 548 504 531 506 531 506 548 510 548 510 531 513 531 510 516 510 509 513 522.4C513.2 523.3 514 524 515 524 515 524 515 524 515 524L515 524C515 524 515 524 515 524 515.9 524 516.7 523.4 517 522.4L520 509 520 525 520 548 524 548 524 525 526 525 526 548 530 548 530 525 530 509 533 522.4C533.2 523.3 534 524 535 524 535.2 524 535.5 524 535.7 523.9 536.6 523.5 537.1 522.5 536.9 521.5Z"/></g></svg>