<svg width="96" height="96" xmlns="http://www.w3.org/2000/svg" xmlns:xlink="http://www.w3.org/1999/xlink" xml:space="preserve" overflow="hidden"><g transform="translate(-9 -374)"><path d="M82.5 440.5C82.5 441.881 81.3807 443 80 443 78.6193 443 77.5 441.881 77.5 440.5 77.5 439.119 78.6193 438 80 438 81.3807 438 82.5 439.119 82.5 440.5Z"/><path d="M93.5 440.5C93.5 441.881 92.3807 443 91 443 89.6193 443 88.5 441.881 88.5 440.5 88.5 439.119 89.6193 438 91 438 92.3807 438 93.5 439.119 93.5 440.5Z"/><path d="M60.5 440.5C60.5 441.881 59.3807 443 58 443 56.6193 443 55.5 441.881 55.5 440.5 55.5 439.119 56.6193 438 58 438 59.3807 438 60.5 439.119 60.5 440.5Z"/><path d="M71.5 440.5C71.5 441.881 70.3807 443 69 443 67.6193 443 66.5 441.881 66.5 440.5 66.5 439.119 67.6193 438 69 438 70.3807 438 71.5 439.119 71.5 440.5Z"/><path d="M38.5 440.5C38.5 441.881 37.3807 443 36 443 34.6193 443 33.5 441.881 33.5 440.5 33.5 439.119 34.6193 438 36 438 37.3807 438 38.5 439.119 38.5 440.5Z"/><path d="M49.5 440.5C49.5 441.881 48.3807 443 47 443 45.6193 443 44.5 441.881 44.5 440.5 44.5 439.119 45.6193 438 47 438 48.3807 438 49.5 439.119 49.5 440.5Z"/><path d="M27.5 440.5C27.5 441.881 26.3807 443 25 443 23.6193 443 22.5 441.881 22.5 440.5 22.5 439.119 23.6193 438 25 438 26.3807 438 27.5 439.119 27.5 440.5Z"/><path d="M97.47 453.66 95.54 446.38C95.4808 446.174 95.3786 445.983 95.24 445.82 94.5821 445.134 93.7694 444.617 92.87 444.31 92.2729 444.085 91.6376 443.98 91 444 90.367 443.999 89.7383 444.104 89.14 444.31 88.2335 444.613 87.416 445.135 86.76 445.83 86.6354 445.999 86.5406 446.189 86.48 446.39L85.48 450.11 84.48 446.42C84.4265 446.214 84.3274 446.023 84.19 445.86 83.5278 445.175 82.712 444.657 81.81 444.35 81.2349 444.118 80.6203 443.999 80 444 79.3672 444 78.7388 444.105 78.14 444.31 77.2353 444.611 76.4205 445.133 75.77 445.83 75.6384 445.996 75.54 446.186 75.48 446.39L74.5 450 73.5 446.38C73.4408 446.174 73.3386 445.983 73.2 445.82 72.5421 445.134 71.7294 444.617 70.83 444.31 70.2454 444.091 69.6242 443.985 69 444 68.367 443.999 67.7383 444.104 67.14 444.31 66.2335 444.613 65.416 445.135 64.76 445.83 64.6354 445.999 64.5406 446.189 64.48 446.39L63.48 450.11 62.48 446.42C62.4265 446.214 62.3274 446.023 62.19 445.86 61.5278 445.175 60.712 444.657 59.81 444.35 59.2349 444.118 58.6203 443.999 58 444 57.3672 444 56.7388 444.105 56.14 444.31 55.2353 444.611 54.4205 445.133 53.77 445.83 53.6384 445.996 53.54 446.186 53.48 446.39L52.5 450 51.5 446.38C51.4408 446.174 51.3386 445.983 51.2 445.82 50.5421 445.134 49.7294 444.617 48.83 444.31 48.2455 444.091 47.6242 443.985 47 444 46.367 443.999 45.7383 444.104 45.14 444.31 44.2336 444.613 43.416 445.135 42.76 445.83 42.6354 445.999 42.5407 446.189 42.48 446.39L41.48 450.11 40.48 446.42C40.4265 446.214 40.3274 446.023 40.19 445.86 39.5278 445.175 38.712 444.657 37.81 444.35 37.2349 444.118 36.6203 443.999 36 444 35.3672 444 34.7388 444.105 34.14 444.31 33.2353 444.611 32.4205 445.133 31.77 445.83 31.6384 445.996 31.54 446.186 31.48 446.39L30.5 450 29.5 446.38C29.4408 446.174 29.3386 445.983 29.2 445.82 28.5421 445.134 27.7294 444.617 26.83 444.31 26.2454 444.091 25.6242 443.985 25 444 24.367 443.999 23.7384 444.104 23.14 444.31 22.2336 444.613 21.416 445.135 20.76 445.83 20.6354 445.999 20.5407 446.189 20.48 446.39L18.55 453.66C18.4419 454.202 18.7933 454.728 19.3349 454.836 19.8301 454.935 20.3213 454.649 20.48 454.17L22 448.44 22 451.58 20.28 458 22 458 22 466 24 466 24 458 26 458 26 466 28 466 28 458 29.72 458 28 451.58 28 448.37 29.53 454.17C29.6643 454.706 30.2074 455.031 30.7431 454.897 31.1009 454.807 31.3803 454.528 31.47 454.17L33 448.37 33 466 35 466 35 455 37 455 37 466 39 466 39 448.43 40.52 454.17C40.52 454.722 40.9677 455.17 41.52 455.17 42.0723 455.17 42.52 454.722 42.52 454.17L44 448.43 44 451.58 42.28 458 44 458 44 466 46 466 46 458 48 458 48 466 50 466 50 458 51.72 458 50 451.58 50 448.37 51.53 454.17C51.6643 454.706 52.2074 455.031 52.7431 454.897 53.1009 454.807 53.3803 454.528 53.47 454.17L55 448.37 55 466 57 466 57 455 59 455 59 466 61 466 61 448.43 62.52 454.17C62.52 454.722 62.9677 455.17 63.52 455.17 64.0723 455.17 64.52 454.722 64.52 454.17L66 448.43 66 451.58 64.28 458 66 458 66 466 68 466 68 458 70 458 70 466 72 466 72 458 73.72 458 72 451.58 72 448.37 73.53 454.17C73.6643 454.706 74.2074 455.031 74.7431 454.897 75.1009 454.807 75.3803 454.528 75.47 454.17L77 448.37 77 466 79 466 79 455 81 455 81 466 83 466 83 448.43 84.52 454.17C84.52 454.722 84.9677 455.17 85.52 455.17 86.0723 455.17 86.52 454.722 86.52 454.17L88 448.43 88 451.58 86.28 458 88 458 88 466 90 466 90 458 92 458 92 466 94 466 94 458 95.72 458 94 451.58 94 448.37 95.53 454.17C95.6507 454.619 96.0651 454.926 96.53 454.91 97.0821 454.895 97.517 454.434 97.5015 453.882 97.4993 453.807 97.4888 453.733 97.47 453.66Z"/><path d="M80 413C81.3807 413 82.5 411.881 82.5 410.5 82.5 409.119 81.3807 408 80 408 78.6193 408 77.5 409.119 77.5 410.5 77.5 411.881 78.6193 413 80 413Z"/><path d="M58 413C59.3807 413 60.5 411.881 60.5 410.5 60.5 409.119 59.3807 408 58 408 56.6193 408 55.5 409.119 55.5 410.5 55.5 411.881 56.6193 413 58 413Z"/><path d="M69 413C70.3807 413 71.5 411.881 71.5 410.5 71.5 409.119 70.3807 408 69 408 67.6193 408 66.5 409.119 66.5 410.5 66.5 411.881 67.6193 413 69 413Z"/><path d="M36 413C37.3807 413 38.5 411.881 38.5 410.5 38.5 409.119 37.3807 408 36 408 34.6193 408 33.5 409.119 33.5 410.5 33.5 411.881 34.6193 413 36 413Z"/><path d="M47 413C48.3807 413 49.5 411.881 49.5 410.5 49.5 409.119 48.3807 408 47 408 45.6193 408 44.5 409.119 44.5 410.5 44.5 411.881 45.6193 413 47 413Z"/><path d="M86.45 423.66 84.52 416.38C84.4665 416.174 84.3674 415.983 84.23 415.82 83.5678 415.135 82.752 414.617 81.85 414.31 81.2597 414.086 80.631 413.981 80 414 79.3672 414 78.7388 414.105 78.14 414.31 77.2353 414.611 76.4205 415.133 75.77 415.83 75.6384 415.996 75.54 416.186 75.48 416.39L74.5 420 73.5 416.38C73.4408 416.174 73.3386 415.983 73.2 415.82 72.5421 415.134 71.7294 414.617 70.83 414.31 70.2454 414.091 69.6242 413.985 69 414 68.367 413.999 67.7383 414.104 67.14 414.31 66.2335 414.613 65.416 415.135 64.76 415.83 64.6354 415.999 64.5406 416.189 64.48 416.39L63.48 420.11 62.48 416.42C62.4265 416.214 62.3274 416.023 62.19 415.86 61.5278 415.175 60.712 414.657 59.81 414.35 59.2349 414.118 58.6203 413.999 58 414 57.3672 414 56.7388 414.105 56.14 414.31 55.2353 414.611 54.4205 415.133 53.77 415.83 53.6384 415.996 53.54 416.186 53.48 416.39L52.5 420 51.5 416.38C51.4408 416.174 51.3386 415.983 51.2 415.82 50.5421 415.134 49.7294 414.617 48.83 414.31 48.2455 414.091 47.6242 413.985 47 414 46.367 413.999 45.7383 414.104 45.14 414.31 44.2336 414.613 43.416 415.135 42.76 415.83 42.6354 415.999 42.5407 416.189 42.48 416.39L41.48 420.11 40.48 416.42C40.4265 416.214 40.3274 416.023 40.19 415.86 39.5278 415.175 38.712 414.657 37.81 414.35 37.2349 414.118 36.6203 413.999 36 414 35.3672 414 34.7388 414.105 34.14 414.31 33.2353 414.611 32.4205 415.133 31.77 415.83 31.6384 415.996 31.54 416.186 31.48 416.39L29.54 423.7C29.4003 424.233 29.7177 424.778 30.25 424.92L30.51 424.92C30.9749 424.936 31.3893 424.629 31.51 424.18L33 418.37 33 436 35 436 35 425 37 425 37 436 39 436 39 418.43 40.52 424.17C40.52 424.722 40.9677 425.17 41.52 425.17 42.0723 425.17 42.52 424.722 42.52 424.17L44 418.43 44 421.58 42.28 428 44 428 44 436 46 436 46 428 48 428 48 436 50 436 50 428 51.72 428 50 421.58 50 418.37 51.53 424.17C51.6643 424.706 52.2074 425.031 52.7431 424.897 53.1009 424.807 53.3803 424.528 53.47 424.17L55 418.37 55 436 57 436 57 425 59 425 59 436 61 436 61 418.43 62.52 424.17C62.52 424.722 62.9677 425.17 63.52 425.17 64.0723 425.17 64.52 424.722 64.52 424.17L66 418.43 66 421.58 64.28 428 66 428 66 436 68 436 68 428 70 428 70 436 72 436 72 428 73.72 428 72 421.58 72 418.37 73.53 424.17C73.6643 424.706 74.2074 425.031 74.7431 424.897 75.1009 424.807 75.3803 424.528 75.47 424.17L77 418.37 77 436 79 436 79 425 81 425 81 436 83 436 83 418.43 84.52 424.17C84.6407 424.619 85.0551 424.926 85.52 424.91 85.6064 424.92 85.6936 424.92 85.78 424.91 86.3091 424.752 86.6098 424.195 86.4516 423.665 86.4511 423.664 86.4506 423.662 86.45 423.66Z"/><path d="M58 383C59.3807 383 60.5 381.881 60.5 380.5 60.5 379.119 59.3807 378 58 378 56.6193 378 55.5 379.119 55.5 380.5 55.5 381.881 56.6193 383 58 383Z"/><path d="M69 383C70.3807 383 71.5 381.881 71.5 380.5 71.5 379.119 70.3807 378 69 378 67.6193 378 66.5 379.119 66.5 380.5 66.5 381.881 67.6193 383 69 383Z"/><path d="M47 383C48.3807 383 49.5 381.881 49.5 380.5 49.5 379.119 48.3807 378 47 378 45.6193 378 44.5 379.119 44.5 380.5 44.5 381.881 45.6193 383 47 383Z"/><path d="M75.47 393.66 73.54 386.38C73.4808 386.174 73.3786 385.983 73.24 385.82 72.5821 385.134 71.7694 384.616 70.87 384.31 70.2729 384.085 69.6376 383.98 69 384 68.367 383.999 67.7383 384.104 67.14 384.31 66.2336 384.613 65.416 385.135 64.76 385.83 64.6354 385.999 64.5407 386.189 64.48 386.39L63.48 390.11 62.48 386.42C62.4265 386.214 62.3274 386.023 62.19 385.86 61.5278 385.175 60.712 384.657 59.81 384.35 59.2349 384.118 58.6203 383.999 58 384 57.3672 384 56.7388 384.105 56.14 384.31 55.2353 384.611 54.4205 385.133 53.77 385.83 53.6384 385.996 53.54 386.186 53.48 386.39L52.5 390 51.5 386.38C51.4408 386.174 51.3386 385.983 51.2 385.82 50.5421 385.134 49.7294 384.616 48.83 384.31 48.2455 384.091 47.6242 383.985 47 384 46.367 383.999 45.7383 384.104 45.14 384.31 44.2336 384.613 43.416 385.135 42.76 385.83 42.6354 385.999 42.5407 386.189 42.48 386.39L40.54 393.7C40.4003 394.233 40.7177 394.778 41.25 394.92 41.3364 394.93 41.4236 394.93 41.51 394.92 41.9749 394.936 42.3893 394.629 42.51 394.18L44 388.43 44 391.58 42.28 398 44 398 44 406 46 406 46 398 48 398 48 406 50 406 50 398 51.72 398 50 391.58 50 388.37 51.53 394.17C51.6643 394.706 52.2074 395.031 52.7431 394.897 53.1009 394.807 53.3803 394.528 53.47 394.17L55 388.37 55 406 57 406 57 395 59 395 59 406 61 406 61 388.43 62.52 394.17C62.52 394.722 62.9677 395.17 63.52 395.17 64.0723 395.17 64.52 394.722 64.52 394.17L66 388.43 66 391.58 64.28 398 66 398 66 406 68 406 68 398 70 398 70 406 72 406 72 398 73.72 398 72 391.58 72 388.37 73.53 394.17C73.6507 394.619 74.0651 394.926 74.53 394.91L74.79 394.91C75.3206 394.757 75.6267 394.203 75.4735 393.672 75.4724 393.668 75.4712 393.664 75.47 393.66Z"/></g></svg>