<svg width="96" height="96" xmlns="http://www.w3.org/2000/svg" xmlns:xlink="http://www.w3.org/1999/xlink" xml:space="preserve" overflow="hidden"><g transform="translate(-850 -253)"><path d="M897.1 334.1 911.4 319.8 931.7 336.3C932.1 336.7 932.8 336.6 933.2 336.2 933.6 335.8 933.6 335.2 933.3 334.7L916.8 314.5 931.1 300.2C932.2 299.1 932.5 297.5 932 296 931.5 294.5 930.1 293.5 928.6 293.4 924.6 293 919.7 294.3 914.7 297L893.5 280C895.3 276.5 896.1 272.6 895.8 268.7 895.4 265.9 891.9 264.4 890 266.3L863.3 293C861.4 294.9 862.9 298.4 865.7 298.8 869.6 299.1 873.5 298.4 877 296.5L894 317.7C891.3 322.7 890.1 327.6 890.4 331.6 890.5 333.1 891.5 334.5 893 335 894.4 335.6 896 335.2 897.1 334.1Z"/></g></svg>