<svg width="96" height="96" xmlns="http://www.w3.org/2000/svg" xmlns:xlink="http://www.w3.org/1999/xlink" xml:space="preserve" overflow="hidden"><g transform="translate(-789 -42)"><path fill="#FFFFFF" d="M795 114 879 114 879 118 795 118Z"/><path fill="#FFFFFF" d="M804.929 88.205C803.932 88.1269 803.036 87.5669 802.529 86.705L796.1 75.769C795.892 75.4012 796.022 74.9345 796.389 74.7266 796.458 74.688 796.531 74.6602 796.608 74.644L798.97 74.144C799.667 73.9974 800.393 74.182 800.935 74.644L809.605 82.07 826.075 78.614 809.3 64.651C808.976 64.3796 808.932 63.8965 809.204 63.572 809.314 63.4403 809.465 63.3495 809.633 63.314L813.101 62.587C813.733 62.4531 814.392 62.5231 814.982 62.787L842.544 75.165 865.752 70.3C868.746 69.671 877.018 71.843 877.489 74.089 878.275 77.832 870.789 79.403 870.789 79.403L832.029 87.537C825.645 88.8767 819.104 89.3019 812.6 88.8Z"/></g></svg>