<svg width="96" height="96" xmlns="http://www.w3.org/2000/svg" xmlns:xlink="http://www.w3.org/1999/xlink" xml:space="preserve" overflow="hidden"><g transform="translate(-1158 -596)"><path d="M1190.4 646.9C1185.8 648.5 1181.5 650.4 1177.8 653.4 1175.4 655.3 1174.1 658 1174 661L1174 678.6 1174.9 679.2C1179.6 682.4 1192.2 684 1205 684.1L1205 654.5 1199.1 660.6 1190.4 646.9Z"/><path d="M1238 661C1237.9 658.1 1236.6 655.3 1234.3 653.5 1230.6 650.5 1226.2 648.6 1221.7 646.9L1213 660.6 1207 654.5 1207 684.1C1220.1 684 1232.9 682.4 1237.2 679.1L1238 678.5 1238 661ZM1229.4 665.3C1229.4 668.8 1225.3 670 1225.3 670 1225.3 670 1221.2 668.8 1221.2 665.3 1221.2 663.9 1221.6 663.9 1221.6 662.7 1221.5 662.2 1221.3 661.8 1221 661.4L1222.4 660C1222.8 660.4 1223.3 660.6 1223.8 660.6 1224.3 660.6 1224.8 660.4 1225.2 660.1 1225.6 660.4 1226.1 660.6 1226.6 660.6 1227.1 660.6 1227.6 660.4 1228 660L1229.4 661.4C1229.1 661.8 1228.9 662.2 1228.8 662.7 1229 663.8 1229.4 663.8 1229.4 665.3Z"/><path d="M1226.6 607.4C1223.4 606.7 1220.3 605.9 1217.3 604.8 1215 604 1209.5 601.3 1207.2 600.1 1206.5 599.7 1205.6 599.7 1204.9 600.1 1202.6 601.3 1197 604 1194.8 604.9 1191.7 606 1188.6 606.8 1185.4 607.5 1184.1 607.8 1183.3 609.1 1183.6 610.4 1183.7 610.8 1183.9 611.3 1184.2 611.6L1188.2 615.6 1188.2 616.9C1188.2 618.3 1188.9 619.6 1190 620.4L1190 629C1190 634.1 1192.4 638.9 1196.5 641.9L1192.2 646.2 1199.4 657.5 1205 651.7 1205 651.5 1198 643C1202.9 645.8 1209 645.8 1213.9 643L1207 651.4 1207 651.6 1212.6 657.4 1219.8 646.1 1215.5 641.8C1219.6 638.8 1222 634 1222 628.9L1222 620.1C1223.1 619.3 1223.8 618 1223.8 616.6L1223.8 615.4 1227.8 611.4C1228.7 610.5 1228.7 608.9 1227.8 608 1227.4 607.8 1227 607.5 1226.6 607.4ZM1209.6 611.7C1209.6 614.8 1206 615.8 1206 615.8 1206 615.8 1202.4 614.8 1202.4 611.7 1202.4 610.4 1202.8 610.4 1202.8 609.4 1202.7 609 1202.6 608.6 1202.3 608.3L1203.6 607C1203.9 607.3 1204.4 607.5 1204.9 607.5 1205.4 607.5 1205.8 607.3 1206.2 607 1206.6 607.3 1207 607.5 1207.5 607.5 1208 607.5 1208.4 607.3 1208.7 607L1210 608.3C1209.7 608.6 1209.6 609 1209.5 609.4 1209.3 610.4 1209.6 610.4 1209.6 611.7ZM1194 629 1194 622.8C1201.5 626.8 1210.5 626.7 1218 622.7L1218 629C1218 635.6 1212.6 641 1206 641 1199.4 641 1194 635.6 1194 629Z"/></g></svg>