<svg width="96" height="96" xmlns="http://www.w3.org/2000/svg" xmlns:xlink="http://www.w3.org/1999/xlink" xml:space="preserve" overflow="hidden"><g transform="translate(-922 -496)"><path fill="#FFFFFF" d="M998 548C998 549.1 997.1 550 996 550L990 550C988.9 550 988 549.1 988 548L988 546C988 544.9 988.9 544 990 544L996 544C997.1 544 998 544.9 998 546L998 548ZM946.3 538 952.1 524.2C952.4 523.5 953.1 523 953.9 523L985.9 523C986.7 523 987.4 523.5 987.7 524.2L993.7 538 946.3 538ZM952 548C952 549.1 951.1 550 950 550L944 550C942.9 550 942 549.1 942 548L942 546C942 544.9 942.9 544 944 544L950 544C951.1 544 952 544.9 952 546L952 548ZM998 538 991.5 522.7C990.6 520.4 988.4 519 986 519L978 519 978 517C978 514.8 976.2 513 974 513L966 513C963.8 513 962 514.8 962 517L962 519 954 519C951.6 519 949.4 520.4 948.5 522.7L942 538C938.7 538 936 540.7 936 544L936 560C936 562.2 937.8 564 940 564L942 564 942 571C942 573.2 943.8 575 946 575L948 575C950.2 575 952 573.2 952 571L952 564 988 564 988 571C988 573.2 989.8 575 992 575L994 575C996.2 575 998 573.2 998 571L998 564 1000 564C1002.2 564 1004 562.2 1004 560L1004 544C1004 540.7 1001.3 538 998 538Z"/></g></svg>