<svg width="96" height="96" xmlns="http://www.w3.org/2000/svg" xmlns:xlink="http://www.w3.org/1999/xlink" xml:space="preserve" overflow="hidden"><g transform="translate(-774 -479)"><path d="M842.6 490.4C839.4 489.7 836.3 488.9 833.3 487.8 831 487 825.5 484.3 823.2 483.1 822.5 482.7 821.6 482.7 820.9 483.1 818.6 484.3 813 487 810.8 487.9 807.7 489 804.6 489.8 801.4 490.5 800.1 490.8 799.3 492.1 799.6 493.4 799.7 493.8 799.9 494.3 800.2 494.6L804.2 498.6 804.2 499.9C804.2 501.1 804.7 502.3 805.6 503.1 799.6 514.3 805.7 529 806.1 530.2 802 531.7 798.1 533.9 794.6 536.6 792.3 538.5 791 541.2 790.9 544.1L790.9 561.7 791.8 562.3C796.5 565.5 808.6 567.1 820.9 567.2L820.9 537.5 815 543.6 806.5 530 808.4 529.3 815.5 540.4 821.1 534.6 821.1 534.4 814.1 525.9C819 528.7 825.1 528.8 830 525.9L823 534.4 823 534.6 828.6 540.4 835.7 529.2 837.6 529.9 828.9 543.6 823 537.5 823 567.1C835.6 567 847.9 565.4 852.2 562.2L853 561.6 853 544C852.9 541.1 851.5 538.4 849.3 536.5 845.9 533.8 842.1 531.6 838 530.1 838 530.1 844.9 514.5 838.5 502.8 839.3 502 839.8 500.9 839.8 499.7L839.8 498.5 843.8 494.5C844.7 493.6 844.7 492 843.8 491.1 843.4 490.8 843 490.5 842.6 490.4L842.6 490.4ZM825.6 494.7C825.6 497.8 822 498.8 822 498.8 822 498.8 818.4 497.8 818.4 494.7 818.4 493.4 818.8 493.4 818.8 492.4 818.7 492 818.6 491.6 818.3 491.3L819.6 490C819.9 490.3 820.4 490.5 820.9 490.5 821.4 490.5 821.8 490.3 822.2 490 822.6 490.3 823 490.5 823.5 490.5 824 490.5 824.4 490.3 824.7 490L826 491.3C825.7 491.6 825.6 492 825.5 492.4 825.3 493.4 825.6 493.4 825.6 494.7ZM822 524C815.4 524 810 518.6 810 512L810 505.8C817.5 509.8 826.5 509.7 834 505.7L834 512C834 518.6 828.6 524 822 524ZM845.4 548.3C845.4 551.8 841.3 553 841.3 553 841.3 553 837.2 551.8 837.2 548.3 837.2 546.9 837.6 546.9 837.6 545.7 837.5 545.2 837.3 544.8 837 544.4L838.4 543C838.8 543.4 839.3 543.6 839.8 543.6 840.3 543.6 840.8 543.4 841.2 543.1 841.6 543.4 842.1 543.6 842.6 543.6 843.1 543.6 843.6 543.4 844 543L845.4 544.4C845.1 544.8 844.9 545.2 844.8 545.7 845 546.8 845.4 546.8 845.4 548.3Z"/></g></svg>