<svg width="96" height="96" xmlns="http://www.w3.org/2000/svg" xmlns:xlink="http://www.w3.org/1999/xlink" xml:space="preserve" overflow="hidden"><g transform="translate(-786 -458)"><path fill="#FFFFFF" d="M825.5 502.6C825.5 507.571 821.471 511.6 816.5 511.6 811.529 511.6 807.5 507.571 807.5 502.6 807.5 497.629 811.529 493.6 816.5 493.6 821.471 493.6 825.5 497.629 825.5 502.6Z"/><path fill="#FFFFFF" d="M858.5 546 858.5 537C858.537 535.575 857.862 534.225 856.7 533.4 854.11 531.372 851.105 529.939 847.9 529.2 845.497 528.477 843.009 528.074 840.5 528 837.985 528.008 835.488 528.413 833.1 529.2 829.94 530.065 826.96 531.487 824.3 533.4 823.172 534.254 822.506 535.585 822.5 537L822.5 546Z"/><path fill="#FFFFFF" d="M849.5 516.6C849.5 521.571 845.471 525.6 840.5 525.6 835.529 525.6 831.5 521.571 831.5 516.6 831.5 511.629 835.529 507.6 840.5 507.6 845.471 507.6 849.5 511.629 849.5 516.6Z"/><path fill="#FFFFFF" d="M821.9 530.2 821.9 530.2C824.708 528.196 827.812 526.644 831.1 525.6 828.826 523.23 827.539 520.084 827.5 516.8L827.5 516.4C826.332 515.911 825.128 515.509 823.9 515.2 821.497 514.477 819.009 514.074 816.5 514 813.985 514.008 811.488 514.413 809.1 515.2 805.972 516.149 803.005 517.565 800.3 519.4 799.138 520.225 798.463 521.575 798.5 523L798.5 532 820.1 532C820.596 531.304 821.204 530.696 821.9 530.2Z"/><path fill="#FFFFFF" d="M867.35 466 829.58 466C828.424 466.011 827.494 466.954 827.5 468.11L827.5 493.86C827.478 495.02 828.4 495.978 829.56 496 829.566 496 829.573 496 829.58 496L835.58 496 835.58 504.44 843.87 496 867.35 496C868.508 495.989 869.44 495.048 869.44 493.89L869.44 468.11C869.44 466.952 868.508 466.011 867.35 466ZM848.29 492.25C847.064 492.25 846.07 491.256 846.07 490.03 846.07 488.804 847.064 487.81 848.29 487.81 849.505 487.81 850.494 488.786 850.51 490 850.532 491.22 849.561 492.228 848.34 492.25 848.324 492.25 848.307 492.25 848.29 492.25ZM849.72 483.1 849.72 486.25 846.87 486.25 846.87 480.36 848.29 480.36C850.77 480.36 852.37 478.91 852.37 476.68 852.409 474.471 850.65 472.649 848.441 472.61 848.391 472.609 848.341 472.609 848.29 472.61 846.233 472.419 844.411 473.931 844.22 475.988 844.199 476.218 844.199 476.45 844.22 476.68L844.22 476.93 841.37 476.93 841.37 476.68C841.154 473.069 843.906 469.967 847.517 469.751 847.775 469.735 848.033 469.735 848.29 469.75 852.073 469.706 855.176 472.736 855.22 476.519 855.221 476.573 855.221 476.626 855.22 476.68 855.317 479.918 852.935 482.699 849.72 483.1Z"/></g></svg>