<svg width="96" height="96" xmlns="http://www.w3.org/2000/svg" xmlns:xlink="http://www.w3.org/1999/xlink" xml:space="preserve" overflow="hidden"><g transform="translate(-747 -312)"><path d="M817.1 332 817.1 366 800.3 349.2 817.1 332ZM780.1 329 814.4 329 797.5 346.5 780.1 329ZM779.1 383.2 775.5 379.6 779.1 371.8 782.7 379.6 779.1 383.2ZM781.9 386.1 784.5 383.5 789.1 393.3 781.9 386.1ZM769.1 393.2 773.7 383.4 776.3 386 769.1 393.2ZM779.1 388.8 785.3 395 772.9 395 779.1 388.8ZM826.2 375.2 821.1 370 821.1 331 822.1 330C823.8 328.3 823.8 325.7 822.1 324 820.4 322.3 817.8 322.3 816.1 324L815.1 325 776.1 325 772 321C768.9 326.6 767.1 333.2 767.1 340.1 767.1 350.3 770.9 359.5 777.1 366.6L764 394.8C763.6 395.7 763.6 396.8 764.2 397.7 764.8 398.6 765.7 399.1 766.7 399.1L791.6 399.1C792.6 399.1 793.6 398.6 794.1 397.7 794.6 396.8 794.7 395.8 794.3 394.8L783.9 372.6C790.5 377.2 798.5 380 807.1 380 814 380.1 820.5 378.2 826.2 375.2Z"/></g></svg>