<svg width="96" height="96" xmlns="http://www.w3.org/2000/svg" xmlns:xlink="http://www.w3.org/1999/xlink" xml:space="preserve" overflow="hidden"><g transform="translate(-192 -582)"><path d="M222.042 619.968 225.712 619.968 216.88 599 208.025 619.968 211.696 619.968 205.731 632.425 214.586 632.425 214.586 638 219.174 638 219.174 632.425 228.006 632.425 222.042 619.968 222.042 619.968Z"/><path d="M277.795 604.784 280.383 604.784 274.155 590 267.912 604.784 270.5 604.784 266.294 613.568 272.538 613.568 272.538 617.498 275.773 617.498 275.773 613.568 282 613.568 277.795 604.784 277.795 604.784Z"/><path d="M246.855 611.619C251.048 614.457 262.263 619.896 264.162 621.248 266.818 623.138 275.446 627.393 268.808 638.905 262.17 650.417 256.022 658.9 251.952 665L197.006 665C210.668 653.785 231.7 644.531 240.791 637.973 249.882 631.415 250.375 626.461 246.006 621 242.006 616 238.418 614.591 236.948 611.58 234.331 606.222 243.782 603.954 247.006 604 247.397 604 251.006 604 251.006 604 251.006 604 242.661 608.782 246.855 611.619Z"/></g></svg>