<svg width="96" height="96" xmlns="http://www.w3.org/2000/svg" xmlns:xlink="http://www.w3.org/1999/xlink" xml:space="preserve" overflow="hidden"><g transform="translate(-460 -257)"><path fill="#FFFFFF" d="M507.27 309.56C507.27 310.681 506.361 311.59 505.24 311.59 504.119 311.59 503.21 310.681 503.21 309.56 503.21 308.439 504.119 307.53 505.24 307.53 506.361 307.53 507.27 308.439 507.27 309.56Z"/><path fill="#FFFFFF" d="M550.55 337 511.47 269C510.371 267.084 507.927 266.421 506.01 267.52 505.394 267.873 504.883 268.384 504.53 269L465.45 337C464.345 338.913 465.001 341.359 466.914 342.464 467.521 342.815 468.209 342.999 468.91 343L547.09 343C549.299 342.998 551.088 341.205 551.086 338.996 551.085 338.295 550.9 337.607 550.55 337ZM506.77 315.4 506.77 316.16C506.759 320.082 503.582 323.259 499.66 323.27L492.05 323.27 492.05 330 489 330 489 313.1 492 313.1 492 320.22 499.61 320.22C501.848 320.209 503.659 318.398 503.67 316.16L503.67 314.16 494.48 310.3 499.2 299.05 526.36 310.32 515.4 319ZM524.48 318.85 520.78 317.33 525.29 313.77 529 315.3Z"/></g></svg>