<svg width="96" height="96" xmlns="http://www.w3.org/2000/svg" xmlns:xlink="http://www.w3.org/1999/xlink" xml:space="preserve" overflow="hidden"><g transform="translate(-495 -226)"><path d="M524 298C524 299.657 525.343 301 527 301 528.657 301 530 299.657 530 298L530 281 524 281Z"/><path d="M522.57 257.923C520.352 257.922 518.222 258.786 516.631 260.331 516.175 260.757 515.815 261.275 515.574 261.851 513.205 267.121 506.465 274.57 500.174 279.373 498.85 280.369 498.584 282.25 499.58 283.574 500.575 284.898 502.456 285.164 503.78 284.168 503.792 284.159 503.804 284.15 503.816 284.141 507.541 281.246 510.954 277.97 514 274.368L514 297.834C513.973 299.303 514.971 300.592 516.4 300.934 518.023 301.266 519.608 300.218 519.94 298.595 519.977 298.41 519.997 298.223 520 298.034L520 278.929 533.6 278.929C535.7 280.729 539.5 281.929 544 281.929L544.974 281.929 544.974 261.209 541.687 257.923 522.57 257.923Z"/><path d="M556.082 269.5 568.974 269.5 572 261.924 581 261.924C584.309 261.914 586.99 259.233 587 255.924L580.8 253.124C579.946 249.503 576.721 246.939 573 246.924L567.5 246.924 566.4 253.324C566.04 254.938 567.056 256.538 568.67 256.898 568.713 256.908 568.757 256.916 568.8 256.924 569.797 257.143 570.834 256.797 571.5 256.024 571.905 255.533 572.18 254.949 572.3 254.324L573 250.524C573.1 249.969 573.63 249.601 574.184 249.701 574.739 249.8 575.107 250.33 575.008 250.885 575.005 250.898 575.003 250.911 575 250.924L574.4 254.624C574.193 256.049 573.394 257.32 572.2 258.124 571.378 258.687 570.395 258.968 569.4 258.924 569.096 258.94 568.792 258.906 568.5 258.824 567.042 258.565 565.767 257.69 565 256.424 564.409 255.359 564.198 254.125 564.4 252.924L565.3 247.624 558.3 255.324C558.277 255.351 558.248 255.375 558.224 255.401L543.414 240.586C543.039 240.211 542.53 240 542 240L531.5 240C530.395 240 529.5 240.896 529.5 242 529.5 242.531 529.711 243.039 530.086 243.414ZM541.172 244 554.746 257.574C554.02 257.801 553.264 257.918 552.503 257.923L550.251 257.923 536.328 244Z"/><path d="M547.976 281.929 548 281.929 548 297.729C547.969 299.358 549.182 300.743 550.8 300.929 552.485 301.009 553.917 299.708 553.997 298.023 553.998 297.992 554 297.96 554 297.929L554 281.929 558 281.929 558 297.834C557.973 299.303 558.971 300.592 560.4 300.934 562.023 301.266 563.608 300.218 563.94 298.595 563.977 298.41 563.997 298.223 564 298.034L564 279.429C565.571 277.302 566.844 274.971 567.786 272.5L547.976 272.5Z"/></g></svg>