<svg width="96" height="96" xmlns="http://www.w3.org/2000/svg" xmlns:xlink="http://www.w3.org/1999/xlink" xml:space="preserve" overflow="hidden"><g transform="translate(-132 -408)"><path d="M182.87 417.3C190.045 425.158 199.935 429.999 210.542 430.846 212.512 431.031 214.014 432.692 214 434.671L214 444.325C214 465.31 200.653 484.508 182.121 496.387 180.848 497.204 179.215 497.204 177.942 496.387 159.41 484.508 146.063 465.31 146.063 444.325L146.063 434.671C146.049 432.692 147.551 431.031 149.521 430.846 160.128 429.999 170.018 425.158 177.193 417.3 178.546 415.732 180.913 415.558 182.481 416.911 182.62 417.031 182.75 417.161 182.87 417.3Z"/></g></svg>