<svg width="96" height="96" xmlns="http://www.w3.org/2000/svg" xmlns:xlink="http://www.w3.org/1999/xlink" xml:space="preserve" overflow="hidden"><g transform="translate(-844 -564)"><path d="M916 616 868 616 868 588 916 588 916 616ZM916 580 895 580 895 575C895 573.3 893.7 572 892 572 890.3 572 889 573.3 889 575L889 580 868 580C865.8 580 864 581.8 864 584L864 616C864 618.2 865.8 620 868 620L889 620 889 652 895 652 895 620 916 620C918.2 620 920 618.2 920 616L920 584C920 581.8 918.2 580 916 580Z"/></g></svg>