<svg width="96" height="96" xmlns="http://www.w3.org/2000/svg" xmlns:xlink="http://www.w3.org/1999/xlink" xml:space="preserve" overflow="hidden"><g transform="translate(-974 -543)"><path d="M1064.55 623 1025.47 554.979C1024.37 553.062 1021.93 552.399 1020.01 553.497 1019.4 553.851 1018.89 554.362 1018.53 554.979L979.45 623C978.345 624.913 979.001 627.359 980.914 628.464 981.521 628.815 982.209 628.999 982.91 629L1061.09 629C1063.3 628.998 1065.09 627.205 1065.09 624.996 1065.09 624.295 1064.9 623.607 1064.55 623ZM1030.78 600.7C1025.93 601.481 1022.22 602.264 1022.22 604.58 1022.22 606.569 1023.94 607.162 1027.58 607.957 1030.41 608.572 1033.61 609.269 1034.93 611.898 1036.6 615.226 1033.29 618.341 1031.07 619.656L1029.8 617.509C1029.84 617.486 1033.73 615.083 1032.7 613.024 1031.91 611.461 1029.44 610.924 1027.06 610.402 1023.79 609.69 1019.72 608.802 1019.72 604.583 1019.72 600.491 1024.34 599.272 1028.69 598.516L1028.69 596.381 1015.54 596.381 1015.54 598.968C1015.45 599.796 1014.86 600.484 1014.06 600.7 1009.21 601.482 1005.5 602.264 1005.5 604.58 1005.5 606.569 1007.22 607.162 1010.87 607.957 1013.69 608.572 1016.89 609.269 1018.21 611.898 1019.88 615.226 1016.57 618.341 1014.35 619.656L1013.08 617.506C1013.11 617.483 1017.01 615.08 1015.98 613.021 1015.19 611.458 1012.72 610.921 1010.33 610.399 1007.07 609.69 1003 608.8 1003 604.583 1003 600.517 1007.56 599.283 1011.89 598.529L1011.89 596.381 1011.16 596.381C1010.35 596.371 1009.7 595.71 1009.7 594.9L1009.7 589.821C1009.7 588.772 1010.43 587.865 1011.46 587.65L1013.92 581.806C1014.3 580.835 1015.23 580.197 1016.28 580.206L1027.96 580.206C1029 580.2 1029.94 580.839 1030.31 581.813L1032.74 587.644C1033.78 587.849 1034.53 588.76 1034.53 589.818L1034.53 594.9C1034.53 595.711 1033.88 596.371 1033.07 596.378L1032.34 596.378 1032.34 598.965C1032.25 599.822 1031.62 600.523 1030.78 600.7Z"/><path d="M1028.23 582.655C1028.18 582.526 1028.05 582.441 1027.92 582.438L1016.23 582.438C1016.09 582.442 1015.97 582.526 1015.92 582.653L1013.88 587.605 1030.35 587.605Z"/></g></svg>