<svg width="96" height="96" xmlns="http://www.w3.org/2000/svg" xmlns:xlink="http://www.w3.org/1999/xlink" xml:space="preserve" overflow="hidden"><g transform="translate(-902 -606)"><path d="M984.1 628.9 977 627 975.1 619.9 984.1 610.9C978.7 608.9 972.7 610 968.4 613.9 964.2 617.8 962.4 623.7 964 629.2L925.2 668C919.7 666.5 913.8 668.3 910 672.5 906.2 676.7 905 682.7 907 688.1L916 679.1 923 681 924.9 688.1 915.9 697.1C921.3 699.1 927.3 698 931.6 694.1 935.8 690.2 937.6 684.3 936 678.8L974.8 640C980.3 641.5 986.2 639.7 990 635.5 993.8 631.3 995 625.3 993 619.9L984.1 628.9Z"/></g></svg>