<svg width="96" height="96" xmlns="http://www.w3.org/2000/svg" xmlns:xlink="http://www.w3.org/1999/xlink" xml:space="preserve" overflow="hidden"><g transform="translate(-788 -374)"><path d="M834 404.1 834 408.1C834.7 408.1 835.3 408 836 408 836.7 408 837.3 408 838 408.1L838 404.1C841.9 404.3 845.6 405.1 849 406.4L847.5 410C848.8 410.5 850 411 851.2 411.6L852.7 407.9C854.6 408.8 856.3 409.9 858 411.1L862.3 406.8C855 401.3 845.9 398 836 398 811.7 398 792 417.7 792 442L792 446 798 446 798 442C798 437.9 798.7 433.9 799.9 430.2L803.6 431.7C804 430.4 804.5 429.2 805 428L801.3 426.5C802.8 423.1 804.9 419.9 807.3 417.2L810.1 420C811 419 811.9 418 812.9 417.1L810.1 414.3C812.8 411.8 815.9 409.6 819.3 407.9L820.8 411.6C822 411 823.2 410.5 824.5 410L823 406.3C826.4 405 830.1 404.3 834 404.1Z"/><path d="M872.1 416.8 867.8 421.1C868.9 422.8 869.9 424.6 870.7 426.4L867 428C867.5 429.2 868 430.5 868.4 431.7L872.1 430.2C873.3 433.9 874 437.9 874 442L874 446 880 446 880 442C880 432.6 877.1 424 872.1 416.8Z"/><path d="M833.2 440.2C833 440.3 832.9 440.5 832.7 440.7 831.3 442.4 831.5 444.9 833.2 446.4 834.9 447.8 837.4 447.6 838.9 445.9L870 409 833.2 440.2Z"/></g></svg>