<svg width="96" height="96" xmlns="http://www.w3.org/2000/svg" xmlns:xlink="http://www.w3.org/1999/xlink" xml:space="preserve" overflow="hidden"><g transform="translate(-642 -278)"><path d="M733.003 313.405 707.04 308.685 707.003 308.888 707.003 314.776 709.006 315.141 709.006 319 699.003 319 699.003 297.826 701.003 297.335 701.003 291.156 647.003 304.419 647.003 310.598 649.003 310.107 649.003 360 699.003 360 699.003 346 709.003 346 709.003 360 731.006 360 731.006 319.141 733.003 319.504ZM655.003 323 665.003 323 665.003 336 655.003 336ZM669.003 323 679.003 323 679.003 336 669.003 336ZM669.003 319 669.003 305.195 679.003 302.738 679.003 319ZM683.003 323 693.003 323 693.003 336 683.003 336ZM709.006 323 709.006 336 699.003 336 699.003 323ZM693.003 319 683.003 319 683.003 301.756 693.003 299.3ZM665.003 306.177 665.003 319 655.003 319 655.003 308.633ZM725.006 336 715.006 336 715.006 316.232 725.006 318.05Z"/></g></svg>