<svg width="96" height="96" xmlns="http://www.w3.org/2000/svg" xmlns:xlink="http://www.w3.org/1999/xlink" xml:space="preserve" overflow="hidden"><g transform="translate(-600 -536)"><path d="M638.25 597.28C645.588 602.664 655.902 601.08 661.286 593.742 665.791 587.603 665.503 579.177 660.59 573.36Z"/><path d="M648 567.5C638.892 567.511 631.511 574.892 631.5 584 631.498 587.159 632.412 590.25 634.13 592.9L656 569.55C653.551 568.197 650.798 567.492 648 567.5Z"/><path d="M663.12 547.5 632.88 547.5 611.5 568.88 611.5 599.12 632.88 620.5 663.12 620.5 684.5 599.12 684.5 568.88ZM648 606.5C635.574 606.5 625.5 596.426 625.5 584 625.5 571.574 635.574 561.5 648 561.5 660.426 561.5 670.5 571.574 670.5 584 670.489 596.422 660.422 606.489 648 606.5Z"/></g></svg>