<svg width="96" height="96" xmlns="http://www.w3.org/2000/svg" xmlns:xlink="http://www.w3.org/1999/xlink" xml:space="preserve" overflow="hidden"><g transform="translate(-1112 -58)"><path fill="#FFFFFF" d="M1138.59 105.973C1138.6 105.126 1138.65 104.281 1138.76 103.441L1125.23 103.441 1125.23 108.441 1138.75 108.441C1138.65 107.622 1138.6 106.798 1138.59 105.973Z"/><path fill="#FFFFFF" d="M1160.01 84.559C1160.84 84.5629 1161.68 84.6159 1162.51 84.718L1162.51 71.161 1157.51 71.161 1157.51 84.718C1158.34 84.6159 1159.17 84.5628 1160.01 84.559Z"/><path fill="#FFFFFF" d="M1176.78 92.7 1186.37 83.114 1182.83 79.58 1173.24 89.171C1174.55 90.2062 1175.74 91.3905 1176.78 92.7Z"/><path fill="#FFFFFF" d="M1146.77 89.171 1137.18 79.58 1133.65 83.115 1143.23 92.7C1144.27 91.3905 1145.46 90.2062 1146.77 89.171Z"/><path fill="#FFFFFF" d="M1173.28 122.748 1182.83 132.3 1186.37 128.764 1176.81 119.205C1175.77 120.519 1174.59 121.708 1173.28 122.748Z"/><path fill="#FFFFFF" d="M1181.26 103.441C1181.47 105.1 1181.47 106.781 1181.27 108.441L1194.79 108.441 1194.79 103.441Z"/><path fill="#FFFFFF" d="M1160.01 127.388C1159.17 127.384 1158.34 127.331 1157.51 127.229L1157.51 140.721 1162.51 140.721 1162.51 127.229C1161.68 127.33 1160.84 127.384 1160.01 127.388Z"/><path fill="#FFFFFF" d="M1143.2 119.208 1133.64 128.766 1137.18 132.3 1146.73 122.747C1145.42 121.708 1144.24 120.52 1143.2 119.208Z"/><path fill="#FFFFFF" d="M1177.42 105.973C1177.42 115.59 1169.62 123.387 1160.01 123.387 1150.39 123.387 1142.59 115.59 1142.59 105.973 1142.59 96.3555 1150.39 88.559 1160.01 88.559 1169.62 88.559 1177.42 96.3555 1177.42 105.973Z"/></g></svg>