<svg width="96" height="96" xmlns="http://www.w3.org/2000/svg" xmlns:xlink="http://www.w3.org/1999/xlink" xml:space="preserve" overflow="hidden"><g transform="translate(-632 -42)"><path d="M714 112 646 112 646 68 714 68 714 112ZM685 116 675 116C674.4 116 674 115.6 674 115 674 114.4 674.4 114 675 114L685 114C685.6 114 686 114.4 686 115 686 115.6 685.6 116 685 116ZM680 64C680.6 64 681 64.4 681 65 681 65.6 680.6 66 680 66 679.4 66 679 65.6 679 65 679 64.4 679.4 64 680 64ZM716 62 644 62C641.8 62 640 63.8 640 66L640 114C640 116.2 641.8 118 644 118L716 118C718.2 118 720 116.2 720 114L720 66C720 63.8 718.2 62 716 62Z"/></g></svg>