<svg width="96" height="96" xmlns="http://www.w3.org/2000/svg" xmlns:xlink="http://www.w3.org/1999/xlink" xml:space="preserve" overflow="hidden"><g transform="translate(-367 -182)"><path d="M383.5 264.8C382.8 265.5 381.9 265.7 381 265.3 380.1 264.9 379.6 264.1 379.6 263.2 379.6 262.3 380.2 261.4 381 261.1 381.9 260.7 382.8 260.9 383.5 261.6 384.4 262.4 384.4 263.9 383.5 264.8ZM454.1 198.9 446 207 439.6 205.3 438 199 446.1 190.9C441.3 189.1 435.9 190.2 432.1 193.6 428.3 197.1 426.8 202.3 428.1 207.3L377.1 258.3C375.3 260 374.6 262.6 375.2 265 375.8 267.4 377.7 269.3 380.1 269.9 382.5 270.5 385 269.8 386.8 268L437.8 217C442.8 218.3 448 216.8 451.5 213 454.9 209.2 456 203.7 454.1 198.9Z" fill="#FFFFFF"/><path d="M453.7 258.3 427.9 232.5 417.5 242.9 442.5 267.9 443.4 268.8 443.5 268.7C446.4 270.8 450.4 270.4 452.9 267.9 455.4 265.3 455.7 261.3 453.7 258.3L453.7 258.3Z" fill="#FFFFFF"/><path d="M389.6 201.8 389.7 201.7 387.1 196.9 378.5 190 375 193.5 381.9 202.1 386.7 204.7 386.8 204.6 405.9 223.7 408.7 220.9Z" fill="#FFFFFF"/></g></svg>