<svg width="96" height="96" xmlns="http://www.w3.org/2000/svg" xmlns:xlink="http://www.w3.org/1999/xlink" xml:space="preserve" overflow="hidden"><g transform="translate(-40 -273)"><path d="M44.1 317.2 49.6 302.8C49.8 302.2 50.2 301.7 50.6 301.3L53.5 298.4 52 296.8C51.2 296 51.2 294.6 52 293.8L55.1 290.7C55.9 289.9 57.3 289.9 58.1 290.7L59.7 292.2 68.6 283.3C69.4 282.5 70.8 282.5 71.6 283.3L81.3 293.1C82.1 293.9 82.1 295.3 81.3 296.1L72.7 304.8 122.5 352.4C123.3 353.2 123.3 354.6 122.5 355.4L116.6 361.3C115.8 362.1 114.4 362.1 113.6 361.3L66 311.5 63.5 314C63 314.5 62.4 314.8 61.8 315L46.8 319.9C46 320.1 45.2 319.9 44.6 319.3 44 318.8 43.8 317.9 44.1 317.2Z" fill="#FFFFFF"/><path d="M104.1 301.4 91.1 292.8C90.6 292.4 90.3 291.9 90.2 291.3 90.2 290.7 90.4 290.1 90.8 289.6L99.8 280.7C100.5 280 101.7 279.9 102.5 280.5L117.8 290.7C117.9 290.7 118 290.8 118 290.9L118.1 291 121 293.9 121.2 294.1 121.3 294.2 121.3 294.3 131.6 309.3C132.2 310.1 132.1 311.3 131.4 312L122.4 320.9C122 321.3 121.3 321.6 120.7 321.5 120.1 321.4 119.5 321.1 119.1 320.6L110.7 308 97.1 322.2 89.7 315.1 104.1 301.4Z" fill="#FFFFFF"/><path d="M59.7 361.3C58.9 362.1 57.5 362.1 56.7 361.3L50.7 355.3C49.9 354.5 49.9 353.1 50.7 352.3L76 328.2 83.7 336.2 59.7 361.3Z" fill="#FFFFFF"/></g></svg>