<svg width="96" height="96" xmlns="http://www.w3.org/2000/svg" xmlns:xlink="http://www.w3.org/1999/xlink" xml:space="preserve" overflow="hidden"><g transform="translate(-1089 -392)"><path d="M1117 410 1103.46 410C1103.46 410 1103.91 416.32 1108.46 418.12 1109.96 418.72 1110.26 420.51 1110.3 421.64 1110.3 421.82 1110.3 422.64 1110.3 422.64 1110.59 425.386 1113.05 427.379 1115.79 427.091 1116.21 427.047 1116.61 426.953 1117 426.81Z"/><path d="M1117 430 1103.46 430C1103.46 430 1103.91 436.32 1108.46 438.12 1109.96 438.72 1110.26 440.51 1110.3 441.64 1110.3 441.82 1110.3 442.64 1110.3 442.64 1110.59 445.386 1113.05 447.379 1115.79 447.091 1116.21 447.047 1116.61 446.953 1117 446.81Z"/><path d="M1117 451 1103.46 451C1103.46 451 1103.91 457.32 1108.46 459.12 1109.96 459.72 1110.26 461.51 1110.3 462.64 1110.3 462.82 1110.3 463.64 1110.3 463.64 1110.59 466.386 1113.05 468.379 1115.79 468.091 1116.21 468.047 1116.61 467.953 1117 467.81Z"/><path d="M1157 410 1170.54 410C1170.54 410 1170.09 416.32 1165.54 418.12 1164.04 418.72 1163.74 420.51 1163.7 421.64 1163.7 421.82 1163.7 422.64 1163.7 422.64 1163.41 425.386 1160.95 427.379 1158.21 427.091 1157.79 427.047 1157.39 426.953 1157 426.81Z"/><path d="M1157 430 1170.54 430C1170.54 430 1170.09 436.32 1165.54 438.12 1164.04 438.72 1163.74 440.51 1163.7 441.64 1163.7 441.82 1163.7 442.64 1163.7 442.64 1163.41 445.386 1160.95 447.379 1158.21 447.091 1157.79 447.047 1157.39 446.953 1157 446.81Z"/><path d="M1157 451 1170.54 451C1170.54 451 1170.09 457.32 1165.54 459.12 1164.04 459.72 1163.74 461.51 1163.7 462.64 1163.7 462.82 1163.7 463.64 1163.7 463.64 1163.41 466.386 1160.95 468.379 1158.21 468.091 1157.79 468.047 1157.39 467.953 1157 467.81Z"/><path d="M1150 404 1124 404C1121.79 404 1120 405.791 1120 408L1120 472C1120 474.209 1121.79 476 1124 476L1150 476C1152.21 476 1154 474.209 1154 472L1154 408C1154 405.791 1152.21 404 1150 404ZM1137 471C1132.03 471 1128 466.971 1128 462 1128 457.029 1132.03 453 1137 453 1141.97 453 1146 457.029 1146 462 1146 466.971 1141.97 471 1137 471ZM1137 449C1132.03 449 1128 444.971 1128 440 1128 435.029 1132.03 431 1137 431 1141.97 431 1146 435.029 1146 440 1146 444.971 1141.97 449 1137 449ZM1137 427C1132.03 427 1128 422.971 1128 418 1128 413.029 1132.03 409 1137 409 1141.97 409 1146 413.029 1146 418 1146 422.971 1141.97 427 1137 427Z"/></g></svg>