<svg width="96" height="96" xmlns="http://www.w3.org/2000/svg" xmlns:xlink="http://www.w3.org/1999/xlink" xml:space="preserve" overflow="hidden"><g transform="translate(-237 -146)"><path fill="#FFFFFF" d="M264 212C264 215.866 260.866 219 257 219 253.134 219 250 215.866 250 212 250 208.134 253.134 205 257 205 260.866 205 264 208.134 264 212Z"/><path fill="#FFFFFF" d="M322 212C322 215.866 318.866 219 315 219 311.134 219 308 215.866 308 212 308 208.134 311.134 205 315 205 318.866 205 322 208.134 322 212Z"/><path fill="#FFFFFF" d="M241 170 297 170 297 194 241 194Z"/><path fill="#FFFFFF" d="M305 180 311 180C312.8 180 314.4 181.2 314.8 182.9L316.8 189.8C316.8 189.9 316.9 189.9 316.9 190L305 190 305 180ZM311 176 301 176 301 190 301 196 301 212 305 212C305 206.5 309.5 202 315 202 320.5 202 325 206.5 325 212 327.2 212 329 210.2 329 208L329 198C329 196.7 328.4 195.6 327.4 194.8L322.1 190.8C321.4 190.3 320.9 189.5 320.7 188.7L318.7 181.8C317.7 178.4 314.5 176 311 176Z"/><path fill="#FFFFFF" d="M297 212 267 212C267 206.5 262.5 202 257 202 251.5 202 247 206.5 247 212L241 212 241 198 297 198 297 212Z"/></g></svg>