<svg width="96" height="96" xmlns="http://www.w3.org/2000/svg" xmlns:xlink="http://www.w3.org/1999/xlink" xml:space="preserve" overflow="hidden"><g transform="translate(-710 -479)"><path d="M730 558 738 558 738 564 730 564Z"/><path d="M778 558 786 558 786 564 778 564Z"/><path d="M788 490 728 490C725.8 490 724 491.8 724 494L724 554C724 556.2 725.8 558 728 558L788 558C790.2 558 792 556.2 792 554L792 494C792 491.8 790.2 490 788 490ZM786 552 730 552 730 496 786 496 786 552Z"/><path d="M734 500 734 548 782 548 782 500 734 500ZM748 534C742.5 534 738 529.5 738 524 738 518.5 742.5 514 748 514 753.5 514 758 518.5 758 524 758 529.5 753.5 534 748 534ZM778 532C778 533.1 777.1 534 776 534 774.9 534 774 533.1 774 532L774 516C774 514.9 774.9 514 776 514 777.1 514 778 514.9 778 516L778 532Z"/><path d="M756 522 753.6 522C753 520.3 751.7 519 750 518.4L750 516 746 516 746 518.4C744.3 519 743 520.4 742.4 522L740 522 740 526 742.4 526C743 527.7 744.3 529 746 529.6L746 532 750 532 750 529.6C751.7 529 753 527.6 753.6 526L756 526 756 522Z"/></g></svg>