<svg width="96" height="96" xmlns="http://www.w3.org/2000/svg" xmlns:xlink="http://www.w3.org/1999/xlink" xml:space="preserve" overflow="hidden"><g transform="translate(-1137 -13)"><path fill="#FFFFFF" d="M1228.2 42.7 1213.6 28.4C1213.2 28 1212.7 27.7 1212.2 27.5L1198.6 22.4C1197.9 22.1 1197 22.3 1196.5 22.9 1193.6 25.9 1189.5 27.8 1185 27.8 1180.5 27.8 1176.4 25.9 1173.5 22.9 1173 22.3 1172.1 22.2 1171.4 22.4L1157.8 27.5C1157.3 27.7 1156.8 28 1156.4 28.4L1141.8 42.7C1141 43.6 1141.1 45 1142 45.7L1155.4 55.8C1156.2 56.4 1157.3 56.4 1158 55.7L1163 51 1163 99.7 1207 99.7 1207 51.1 1212 55.8C1212.7 56.5 1213.9 56.5 1214.6 55.9L1228 45.7C1228.9 45 1229 43.6 1228.2 42.7Z"/></g></svg>