<svg width="96" height="96" xmlns="http://www.w3.org/2000/svg" xmlns:xlink="http://www.w3.org/1999/xlink" xml:space="preserve" overflow="hidden"><g transform="translate(-895 -37)"><path d="M973.4 48 973.4 48C972.9 53.1 974.5 58.2 978 61.9L978 61.9C972.9 62.2 968.2 64.7 965.1 68.8L965.1 68.8C965.6 63.7 964 58.6 960.5 54.9L960.5 54.9C965.6 54.5 970.3 52 973.4 48Z"/><path d="M942.5 50.8C942 57.3 944 63.3 948 67.4L948 67.4C942.3 67.6 936.6 70.6 932.5 75.6L932.5 75.6C933 69.2 931 63.1 927 59L927 59C932.7 58.8 938.4 55.8 942.5 50.8L942.5 50.8Z"/><path d="M972.6 76.2 972.6 76.2C972.2 79.8 973.4 83.3 975.8 86L975.8 86C972.2 86.2 968.9 88 966.7 90.8L966.7 90.8C967.1 87.2 965.9 83.7 963.5 81L963.5 81C967.1 80.8 970.4 79 972.6 76.2Z"/><path d="M907.655 116.891 943.505 81.0414 949.162 86.6982 913.312 122.548Z"/><path d="M946.325 78.3125 955.163 69.4738 960.82 75.1306 951.981 83.9693Z"/></g></svg>