<svg width="96" height="96" xmlns="http://www.w3.org/2000/svg" xmlns:xlink="http://www.w3.org/1999/xlink" xml:space="preserve" overflow="hidden"><g transform="translate(-974 -93)"><path fill="#FFFFFF" d="M994 133 1050 133 1050 137 994 137Z"/><path fill="#FFFFFF" d="M994 141 1050 141 1050 145 994 145Z"/><path fill="#FFFFFF" d="M1037 167 1037 179 1050 179 1050 167ZM1042 171 1039 171 1039 169 1042 169Z"/><path fill="#FFFFFF" d="M1022 167 1022 179 1035 179 1035 167ZM1027 171 1024 171 1024 169 1027 169Z"/><path fill="#FFFFFF" d="M1037 153 1037 165 1050 165 1050 153ZM1042 157 1039 157 1039 155 1042 155Z"/><path fill="#FFFFFF" d="M1022 153 1022 165 1035 165 1035 153ZM1027 157 1024 157 1024 155 1027 155Z"/><path fill="#FFFFFF" d="M1007 167 1007 179 1020 179 1020 167ZM1012 171 1009 171 1009 169 1012 169Z"/><path fill="#FFFFFF" d="M1060 179 1060 119.59 1022 104 984 119.59 984 179 990 179 990 129 1054 129 1054 179 1060 179Z"/></g></svg>