<svg width="96" height="96" xmlns="http://www.w3.org/2000/svg" xmlns:xlink="http://www.w3.org/1999/xlink" xml:space="preserve" overflow="hidden"><g transform="translate(-53 -527)"><path fill="#FFFFFF" d="M130.006 547.5C130.006 541.149 124.857 536 118.506 536 112.154 536 107.006 541.149 107.006 547.5 107.006 553.851 112.154 559 118.506 559 124.857 559 130.006 553.851 130.006 547.5ZM118.506 539.172C120.354 539.171 121.853 540.669 121.854 542.516 121.855 544.364 120.358 545.863 118.51 545.864 116.662 545.865 115.163 544.368 115.162 542.52 115.162 542.52 115.162 542.519 115.162 542.518 115.161 540.671 116.658 539.173 118.506 539.172 118.506 539.172 118.506 539.172 118.506 539.172ZM125.194 553.448 111.818 553.448 111.818 550.102C111.82 549.576 112.067 549.082 112.486 548.764 113.475 548.053 114.582 547.524 115.756 547.203 116.644 546.91 117.571 546.759 118.506 546.756 119.438 546.784 120.362 546.934 121.255 547.203 122.446 547.477 123.563 548.01 124.525 548.764 124.957 549.071 125.208 549.573 125.194 550.102Z"/><path fill="#FFFFFF" d="M118.506 613C124.857 613 130.006 607.851 130.006 601.5 130.006 595.149 124.857 590 118.506 590 112.154 590 107.006 595.149 107.006 601.5 107.006 607.851 112.154 613 118.506 613ZM118.506 593.172C120.354 593.171 121.853 594.669 121.854 596.516 121.855 598.364 120.358 599.863 118.51 599.864 116.662 599.865 115.163 598.368 115.162 596.52 115.162 596.52 115.162 596.519 115.162 596.518 115.161 594.671 116.658 593.173 118.506 593.172 118.506 593.172 118.506 593.172 118.506 593.172ZM111.818 604.102C111.82 603.576 112.067 603.082 112.486 602.764 113.475 602.053 114.582 601.524 115.756 601.203 116.644 600.91 117.571 600.759 118.506 600.756 119.438 600.784 120.362 600.934 121.255 601.203 122.446 601.477 123.563 602.01 124.525 602.764 124.957 603.071 125.208 603.573 125.194 604.102L125.194 607.448 111.818 607.448Z"/><path fill="#FFFFFF" d="M146.006 574.5C146.006 568.149 140.857 563 134.506 563 128.155 563 123.006 568.149 123.006 574.5 123.006 580.851 128.155 586 134.506 586 140.857 586 146.006 580.851 146.006 574.5ZM134.506 566.172C136.354 566.171 137.853 567.669 137.854 569.516 137.855 571.364 136.358 572.863 134.51 572.864 132.662 572.865 131.163 571.368 131.162 569.52 131.162 569.52 131.162 569.519 131.162 569.518 131.161 567.671 132.658 566.173 134.506 566.172 134.506 566.172 134.506 566.172 134.506 566.172ZM141.194 580.448 127.818 580.448 127.818 577.102C127.82 576.576 128.067 576.082 128.487 575.764 129.475 575.053 130.582 574.524 131.756 574.203 132.643 573.91 133.571 573.759 134.506 573.756 135.438 573.784 136.362 573.934 137.255 574.203 138.446 574.477 139.563 575.01 140.525 575.764 140.957 576.071 141.208 576.573 141.194 577.102Z"/><path fill="#FFFFFF" d="M91.0058 597.075 89.0509 597.075 89.0509 551.043 86.0849 551.043 86.0849 546.107 61.9267 546.107 61.9267 551.043 58.9606 551.043 58.9606 597.075 57.0058 597.075 57.0058 601 91.0058 601ZM67.938 592.42 64.0058 592.42 64.0058 588.484 67.938 588.484ZM67.938 584.42 64.0058 584.42 64.0058 580.484 67.938 580.484ZM67.938 576.42 64.0058 576.42 64.0058 572.484 67.938 572.484ZM67.938 568.419 64.0058 568.419 64.0058 564.484 67.938 564.484ZM67.938 560.419 64.0058 560.419 64.0058 556.484 67.938 556.484ZM75.938 597.42 72.0058 597.42 72.0058 588.484 75.938 588.484ZM75.938 584.42 72.0058 584.42 72.0058 580.484 75.938 580.484ZM75.938 576.42 72.0058 576.42 72.0058 572.484 75.938 572.484ZM75.938 568.419 72.0058 568.419 72.0058 564.484 75.938 564.484ZM75.938 560.419 72.0058 560.419 72.0058 556.484 75.938 556.484ZM84.0058 592.42 80.0736 592.42 80.0736 588.484 84.0058 588.484ZM84.0058 584.42 80.0736 584.42 80.0736 580.484 84.0058 580.484ZM84.0058 576.42 80.0736 576.42 80.0736 572.484 84.0058 572.484ZM84.0058 568.419 80.0736 568.419 80.0736 564.484 84.0058 564.484ZM84.0058 560.419 80.0736 560.419 80.0736 556.484 84.0058 556.484Z"/><path fill="#FFFFFF" d="M95.9051 561.594 98.9814 559.338 101.347 562.564 98.2703 564.819Z"/><path fill="#FFFFFF" d="M102.057 557.082 105.133 554.826 107.499 558.051 104.423 560.308Z"/><path fill="#FFFFFF" d="M89.7523 566.106 92.8284 563.85 95.1938 567.076 92.1176 569.331Z"/><path fill="#FFFFFF" d="M102.057 591.918 104.423 588.692 107.499 590.949 105.133 594.174Z"/><path fill="#FFFFFF" d="M89.7523 582.894 92.1176 579.669 95.1938 581.924 92.8284 585.15Z"/><path fill="#FFFFFF" d="M95.9051 587.406 98.2705 584.181 101.347 586.437 98.9813 589.662Z"/><path fill="#FFFFFF" d="M100.166 572.5 104.139 572.5 104.139 576.5 100.166 576.5Z"/><path fill="#FFFFFF" d="M92.2191 572.5 96.1927 572.5 96.1927 576.5 92.2191 576.5Z"/><path fill="#FFFFFF" d="M116.06 572.5 120.033 572.5 120.033 576.5 116.059 576.5Z"/><path fill="#FFFFFF" d="M108.113 572.5 112.086 572.5 112.086 576.5 108.113 576.5Z"/></g></svg>